<?xml version="1.0" encoding="utf-8"?>
<!-- Generator: Adobe Illustrator 28.0.0, SVG Export Plug-In . SVG Version: 6.00 Build 0)  -->
<svg version="1.1" xmlns="http://www.w3.org/2000/svg" xmlns:xlink="http://www.w3.org/1999/xlink" x="0px" y="0px"
	 viewBox="0 0 800 600" style="enable-background:new 0 0 800 600;" xml:space="preserve">
<style type="text/css">
	.st0{display:none;}
	.st1{display:inline;}
	.st2{fill:#E02D6B;stroke:#010202;stroke-width:3;stroke-miterlimit:10;}
	.st3{display:inline;fill:#3C6BB3;stroke:#010202;stroke-width:3;stroke-miterlimit:10;}
	.st4{fill:#EAE65F;stroke:#EAE660;stroke-width:2;stroke-miterlimit:10;}
	.st5{fill:#3C6BB3;stroke:#010202;stroke-width:2;stroke-miterlimit:10;}
	.st6{font-family:'AkzidenzGroteskBQ-XBold';}
	.st7{font-size:119.611px;}
	.st8{fill:#E02D6B;stroke:#010202;stroke-width:2;stroke-miterlimit:10;}
	.st9{display:inline;fill:#EAE65F;stroke:#EAE660;stroke-width:2;stroke-miterlimit:10;}
	.st10{display:inline;stroke:#000000;stroke-width:2;stroke-miterlimit:10;}
	.st11{font-family:'AkzidenzGroteskBQ-Ext';}
	.st12{font-size:53.825px;}
	.st13{stroke:#000000;stroke-width:2;stroke-miterlimit:10;}
	.st14{fill:#EAE65F;}
	.st15{fill:#E02D6B;}
	.st16{fill:#3C6BB3;}
	.st17{fill:none;stroke:#010202;stroke-width:2;stroke-miterlimit:10;}
	.st18{fill:none;stroke:#010202;stroke-width:1.5;stroke-miterlimit:10;}
	.st19{fill:none;stroke:#010202;stroke-width:0.75;stroke-miterlimit:10;}
</style>
<g id="Capa_1" class="st0">
	<g class="st1">
		<path class="st2" d="M114.63,383.64c-1.1,0-2.2-0.07-3.29-0.01c-0.87,0.05-1.17-0.2-1.14-1.04c0.05-1.78,0-3.56-0.01-5.34
			c-4.34,1.37-8.81,2.36-13.16,3.75c-5.88,1.87-5.71,6.65-2.81,9.97c0.74,0.85,1.72,1.51,2.81,2.44c0-1.24,0-2.37,0-3.5
			c0-0.89-0.01-1.79,0.04-2.68c0.07-1.26,1.83-2.35,3.09-1.91c0.85,0.29,0.8,1.08,0.83,1.69c0.08,1.95,0.09,3.91,0.05,5.87
			c-0.09,4.38-0.21,8.77-0.36,13.15c-0.05,1.54-0.31,3.08-0.15,4.63c2.58-1.53,2.71-3.97,2.74-6.45c0.02-1.73,0.02-3.47,0.09-5.2
			c0.05-1.24,0.4-1.43,1.42-0.75c2.58,1.72,4.9,3.64,4.55,7c-0.3,2.81-2.08,4.78-4.48,6.3c-0.97,0.62-2.02,1.15-3.05,1.68
			c-0.63,0.32-1.29,0.66-1.68,1.21c-0.77,1.09-1.45,1.74-2.55,0.26c-0.31-0.42-1.08-0.22-1.64-0.16c-2.89,0.32-5.79,0.69-9.08,0.52
			c1.41-0.7,2.66-0.7,3.81-0.93c2.14-0.42,4.21-1.02,6.24-1.72c0.55-0.19,0.97-0.4,0.94-1.09c-0.17-3.44-0.33-6.88-0.41-10.32
			c-0.02-0.81-0.3-1.29-1.03-1.71c-1.85-1.07-3.64-2.21-5.36-3.47c-3.06-2.24-4.2-5.21-4.11-8.7c0.12-4.96,2.56-8.5,7.52-10.36
			c1.55-0.58,1.81-1.55,1.83-2.9c0.07-7.45-0.39-14.88-0.65-22.32c-0.03-0.78-0.52-0.92-1.07-1.18
			c-3.67-1.76,10.72-15.83,7.26-17.95c-4.87-2.99-27.7-4.35-26.53-6.44c-0.02-0.06-0.03-0.13-0.04-0.19
			c-0.36-0.14-0.72-0.27-1.08-0.41c-2.94-1.3-5.83-2.67-8.33-4.66c-1.07-0.48-1.99-1.17-2.83-1.94c-0.75-0.46-1.48-0.93-2.03-1.61
			c-1.11-0.75-2.03-1.68-2.92-2.65c-0.45-0.26-0.81-0.6-1.1-1.02c-1-0.91-1.92-1.88-2.66-2.99c-0.7-0.53-1.16-1.23-1.62-1.93
			c-0.63-0.61-1.09-1.32-1.5-2.07c-1.04-1.23-1.81-2.62-2.5-4.04c-0.32-0.29-0.48-0.65-0.56-1.05c-0.62-0.92-1.18-1.87-1.4-2.96
			c-0.76-1.03-1.07-2.23-1.5-3.39c-0.57-1.59-1.22-3.16-1.45-4.84c-0.4-1.24-0.73-2.48-0.77-3.78c-0.4-1.31-0.49-2.65-0.55-4
			c-0.05-2.07-0.66-4.14-0.09-6.21c0.03-0.6,0.06-1.19,0.09-1.79c-0.11-1.37,0.19-2.7,0.47-4.03c0.28-2.76,1.05-5.41,1.97-8.03
			c0.44-1.48,0.93-2.95,1.76-4.3c0.34-1.26,1-2.39,1.74-3.48c0.01-0.21,0.04-0.41,0.27-0.53c1.34-2.79,3.21-5.26,5.2-7.66
			c0.91-1.27,2-2.4,3.16-3.48c0.18-0.18,0.36-0.36,0.55-0.53c1.06-1.11,2.13-2.21,3.43-3.1l-17.04-19.04
			c-1.36,1.18-2.72,2.36-4.08,3.53c-0.88,0.86-1.76,1.73-2.63,2.59c-1.23,1.33-2.46,2.67-3.69,4c-0.75,0.92-1.5,1.84-2.25,2.76
			c-0.2,0.47-0.49,0.9-0.9,1.24c-1.95,2.7-3.7,5.51-5.39,8.35c-1.26,2.56-2.53,5.12-3.79,7.67c-0.55,1.45-1.09,2.9-1.64,4.35
			c-0.32,1.04-0.64,2.08-0.96,3.12c0.04,0.22,0.05,0.43-0.18,0.57c-0.33,1.32-0.65,2.65-0.98,3.97c-0.27,1.34-0.55,2.68-0.82,4.02
			c-0.18,1.33-0.36,2.66-0.54,4c-0.11,1.34-0.21,2.68-0.32,4.01c-0.01,0.8-0.01,1.6-0.02,2.4c0.01,1.87,0.02,3.74,0.02,5.61
			c0.21,1.41,0.39,2.82,0.37,4.24c0.19,1.25,0.38,2.5,0.58,3.75c0.26,1.34,0.51,2.68,0.77,4.02c0.8,2.66,1.61,5.32,2.41,7.98
			c0.46,1.24,0.92,2.47,1.38,3.71c1.35,2.77,2.7,5.53,4.05,8.3c1.7,2.57,3.41,5.14,5.11,7.71c0.36,0.47,0.71,0.95,1.07,1.42
			c0.8,0.96,1.6,1.93,2.4,2.89c0.64,0.72,1.29,1.45,1.93,2.17c0.6,0.61,1.19,1.22,1.79,1.83c0.84,0.81,1.67,1.62,2.51,2.43
			c0.47,0.44,0.95,0.87,1.42,1.31c0.96,0.8,1.92,1.61,2.88,2.41c0.79,0.61,1.7,1.09,2.34,1.86c0.65,0.45,1.29,0.9,1.94,1.36
			c2.76,1.7,5.51,3.4,8.27,5.11c0.99,0.51,1.97,1.03,2.96,1.54c0.44,0.2,0.88,0.41,1.33,0.61c1.56,0.68,3.11,1.36,4.67,2.05
			c1.29,0.3,2.5,0.81,3.69,1.35c0.09-0.02,0.17,0,0.25,0.06c1.43,0.44,2.85,0.89,4.28,1.33c1.65,0.43,3.3,0.85,4.95,1.28
			c2.19,0.37,4.38,0.76,6.58,1.12c0.35,0.06,0.51,0.19,0.45,0.52c0.01,6.57,0.02,13.14,0.04,19.71c0,2.62-0.04,5.24,0.03,7.86
			c0.03,0.98-0.28,1.25-1.35,1.25c-11.61-0.04-23.22-0.03-34.83-0.02c-0.62,0-1.24,0.03-1.85,0.05c-0.02,7.11-0.01,14.22-0.08,21.33
			c-0.01,1.07,0.51,1.08,1.36,1.08c11.75-0.02,23.51,0.01,35.26-0.04c1.19,0,1.48,0.26,1.48,1.37c-0.05,10.49-0.03,20.97-0.02,31.46
			c0,0.39-0.11,0.81,0.31,1.1c1.98-0.25,3.96-0.08,5.95-0.07c4.99,0.01,9.99-0.06,14.98-0.07c0.84,0,1.68,0.09,2.52,0.15
			c0.48-0.33,0.3-0.81,0.3-1.24c0.01-10.44,0.02-20.88-0.02-31.32c0-1.1,0.31-1.38,1.48-1.37c11.75,0.05,23.51,0.02,35.27,0.05
			c0.89,0,1.36-0.04,1.35-1.09c-0.06-7.11-0.05-14.22-0.07-21.32C137.03,383.65,125.83,383.65,114.63,383.64z M99.5,430.99
			c-0.07,2.02-0.29,4.04-0.44,6.06c-0.05,0.74,0.01,1.51-0.49,2.21c-0.39-6.74-0.47-13.49,0.34-20.42c0.95,0.54,0.91,1.12,0.93,1.68
			C99.95,424.02,99.62,427.5,99.5,430.99z"/>
		<polygon class="st2" points="110.13,358.01 110.12,358.09 110.13,358.09 		"/>
		<path class="st2" d="M132.65,319.4c-0.73,0.58-1.51,1.09-2.33,1.55c-2.79,1.9-5.72,3.58-8.95,4.77c-0.71,0.34-1.36,0.8-2.2,0.82
			c-2,1.02-4.17,1.59-6.37,2.08c-1.31,0.37-2.63,0.75-4.01,0.83c-1.37,0.4-2.78,0.57-4.22,0.57c-0.53,0.39-1.16,0.15-1.74,0.24
			c-0.13,5.21-0.26,10.42-0.4,15.63c-0.24,8.97-0.59,17.94-0.58,26.91c0,1.5,0,1.5,1.61,1.12c2.34-0.55,4.55-1.43,6.75-2.32
			c0.01-0.08,0.03-0.16,0.06-0.24c0-4.3,0-8.61,0-12.91c0,0-0.01-0.09-0.01-0.09l0-0.09c-0.09-0.02-0.13-0.08-0.13-0.16l0-0.01
			c-1.62-1.29-3.24-2.57-5.07-3.59c-0.45-0.25-0.48-0.61-0.48-1.02c0.02-1.82-0.05-3.63,0.19-5.44c0.13-0.94,0.54-1.14,1.4-0.71
			c3.42,1.7,6.71,3.6,9.52,6.13c0.07,0.01,0.14,0.01,0.22,0.02c1.83-0.44,3.65-0.88,5.48-1.31c1.18-0.52,2.43-0.83,3.69-1.1
			c0.6-0.44,1.35-0.53,2.04-0.75c0.83-0.3,1.66-0.59,2.49-0.89c1.54-0.64,3.08-1.27,4.62-1.91c2.92-1.42,5.78-2.93,8.58-4.54
			c0.39-0.23,0.79-0.46,1.18-0.7c0.94-0.63,1.89-1.26,2.83-1.89c0.93-0.63,1.86-1.27,2.79-1.9c0.02-0.02,0.04-0.04,0.06-0.07
			L132.65,319.4z"/>
	</g>
</g>
<g id="Capa_3" class="st0">
	<path class="st3" d="M59.96,240.26c0.65-0.49,1.3-0.99,1.89-1.54c1.06-0.91,2.15-1.8,3.42-2.46c1.1-0.92,2.31-1.68,3.65-2.27
		c1.08-0.84,2.33-1.4,3.61-1.9c0.23-0.24,0.45-0.48,0.84-0.45c1.18-0.54,2.32-1.17,3.63-1.41c2.94-1.39,6.08-2.19,9.31-2.74
		c1.17-0.43,2.42-0.46,3.64-0.64c0.53-0.15,1.07-0.21,1.62-0.13c1.76-0.4,3.56-0.43,5.36-0.37c0.08,0,0.17,0,0.25,0
		c1.85-0.11,3.7-0.13,5.53,0.19c0.41-0.11,0.8-0.04,1.19,0.07c1.29,0.02,2.56,0.19,3.81,0.49c3.42,0.5,6.76,1.25,9.94,2.53
		c0.76,0.23,1.57,0.34,2.18,0.88c2.19,0.6,4.15,1.63,6.08,2.73c1.21,0.6,2.43,1.2,3.47,2.06c1.28,0.62,2.4,1.43,3.42,2.38
		c0.67,0.07,11.89,7.95,17.51,22.31c0.15,0.33,0.3,0.66,0.45,1c1.1,2.86,2.1,5.74,2.36,8.79c0.39,1.05,0.52,2.14,0.53,3.24
		c0.18,0.82,0.34,1.64,0.22,2.48c0.21,1.26,0.17,2.53,0.06,3.79c0.12,0.48,0.12,0.96,0,1.44c0.02,1.3-0.06,2.59-0.39,3.86
		c0.09,0.83-0.11,1.63-0.32,2.43c-0.02,0.84-0.23,1.65-0.51,2.45c-0.2,1.56-0.7,3.04-1.29,4.51c0.01,0.41-0.15,0.78-0.4,1.11
		c-0.26,1.06-0.59,2.1-1.25,3.02c-0.24,1.23-0.94,2.29-1.51,3.39c-0.8,1.5-1.53,3.04-2.64,4.38c-0.65,1.14-1.37,2.24-2.32,3.18
		c-0.71,1.19-1.66,2.2-2.64,3.19c-1.53,1.49-2.66,3.34-4.61,4.43c-0.43,0.35-0.85,0.68-1.28,1.03c-0.81,0.94-1.83,1.64-2.88,2.31
		L149,338.95c0.54-0.39,1.08-0.78,1.62-1.17c0.94-0.77,1.89-1.54,2.83-2.31l1.46-1.34c1.67-1.67,4.41-4.4,6.08-6.06
		c0.15-0.17,0.31-0.34,0.47-0.5c0.94-1.1,2.48-2.89,3.42-3.99c0.85-1.13,1.69-2.26,2.54-3.39c1.13-1.8,2.25-3.58,3.38-5.38
		c1.15-2.2,2.29-4.41,3.44-6.61c0.93-2.44,1.86-4.87,2.79-7.31c0.74-2.94,1.49-5.88,2.23-8.82c0.11-0.57,0.21-1.14,0.32-1.71
		c0.15-1.06,0.3-2.11,0.45-3.17c0.11-1.09,0.22-2.18,0.32-3.27c0.03-0.52,0.08-1.38,0.12-1.9c0.03-1.32,0.06-2.63,0.09-3.95
		c-0.01-0.66-0.03-1.73-0.04-2.38c-0.06-1.03-0.12-2.06-0.18-3.08c-0.08-0.8-0.29-1.6-0.28-2.41c-0.09-0.75-0.23-1.96-0.31-2.71
		c-0.61-2.8-1.22-5.61-1.83-8.41c-0.29-1.01-0.77-2.66-1.06-3.67l-0.47-1.31c-0.67-1.57-1.02-3.79-1.68-5.36
		c-0.35-0.71-1.37-1.81-1.64-2.55c-0.08-0.05-0.12-0.11-0.13-0.2c-0.72-1.35-1.45-2.7-2.17-4.05c-0.81-1.27-1.65-3.03-2.45-4.31
		c-1.08-1.46-2.63-3.24-3.73-4.7c-0.2-0.27-0.21-0.47,0.08-0.67c4.97-4.65,9.95-9.31,14.92-13.96c1.98-1.86,26.24-24.43,28.18-26.32
		c0.73-0.71,5.17,44.53,5.62,44.92c5.4-5.01,10.79-10.05,16.23-15.03c-2.25-26.98-8.2-57-9.87-58.53
		c-1.89-1.74-53.19-5.9-60.99-7.55c-5.34,5.07-10.74,10.09-16.12,15.12c10.55,1.41,47.8,4.85,48.62,5.52
		c0.65,0.54-21.89,19.74-22.53,20.32c-1.32,1.16-2.57,2.39-3.85,3.6c-1.23,1.12-11.43,10.57-14.5,13.44c0,0-0.06,0.07-0.06,0.07
		l-1.73,1.54c-0.49,0.44-1.17,0.63-1.83,0.5c-1.01-0.19-2.24-0.95-3.95-2.19c-0.04-0.05-0.13-0.08-0.18-0.13
		c-1.62-0.89-3.24-1.79-4.87-2.68c-1.23-0.41-2.34-1.02-3.45-1.66c-0.76-0.09-1.35-0.51-2.01-0.82l-2.43-1.02
		c-1.43-0.5-3.75-1.33-5.18-1.83c-3.36-0.98-6.75-1.83-10.18-2.56c-0.08-0.01-0.15-0.03-0.23-0.04c-1.13-0.17-2.26-0.35-3.39-0.52
		c-1.15-0.13-3.03-0.34-4.18-0.47c-0.53-0.02-1.05-0.14-1.58-0.23c-5.31-0.27-10.61-0.28-15.91,0.19c-0.82,0.09-1.65,0.18-2.47,0.28
		c-1.08,0.16-2.16,0.33-3.24,0.49c-1.54,0.31-3.06,0.74-4.64,0.86c-1.58,0.49-3.17,0.96-4.82,1.23c-1.24,0.38-2.47,0.75-3.71,1.13
		c-0.23,0.15-0.42,0.39-0.77,0.3c-1.46,0.56-2.91,1.11-4.37,1.67c-2.68,1.25-5.34,2.5-8.02,3.75c-1.27,0.71-2.54,1.42-3.81,2.13
		c-1.14,0.72-2.27,1.44-3.4,2.16c-2.41,1.73-4.76,3.51-7.02,5.4L59.96,240.26z"/>
</g>
<g id="Capa_2" class="st0">
	<g class="st1">
		<path class="st4" d="M75.32,325.98c-0.02-0.06-0.03-0.13-0.04-0.19c0.79-1.09,1.57-2.18,2.36-3.28c0.46-0.29,0.85-0.64,1.14-1.08
			c1.27-1.05,2.53-2.11,3.8-3.16c0.08-0.07,0.16-0.14,0.25-0.21c2.73-1.89,5.61-3.57,8.53-5.18c1.07-0.32,1.98-0.91,2.9-1.48
			c0.49-0.25,0.34-0.69,0.33-1.07c-0.03-1.28-0.09-2.56-0.13-3.83c-0.01-1.26,0.19-2.53-0.15-3.78c0.12-1.5,0.06-3-0.13-4.49
			c0.01-1.81,0.23-3.63-0.18-5.43c0.15-0.95,0.05-1.9-0.11-2.84c0.01-0.93,0.21-1.87-0.18-2.77c0.14-3.09,0.11-3.14-2.59-3.73
			c-1.41-0.52-2.82-1.07-4.34-1.28c-0.07-0.05-0.14-0.07-0.23-0.05c-1.26-0.42-2.51-0.83-3.77-1.25c-1.3-0.47-2.6-0.94-3.9-1.4
			c-3.01-1.37-6.09-2.64-8.92-4.33c-0.57-0.35-1.14-0.71-1.71-1.06c-0.86-0.8-1.72-1.6-2.58-2.41c-0.39-0.5-0.78-0.99-1.17-1.49
			c-0.55-1.17-1.1-2.34-1.65-3.5c-0.14-0.97-0.28-1.94-0.42-2.9c-0.06-1.63,0.27-3.22,0.6-4.81c0.62-1.58,1.33-3.12,2.41-4.49
			c0.08-0.07,0.15-0.14,0.23-0.21c2.35-2.39,5.34-3.81,8.52-4.96c1.35-0.4,2.7-0.8,4.05-1.2c2.29-0.45,4.57-0.9,6.86-1.36
			c0.76-0.01,1.53-0.01,2.25-0.3c1.28,0.05,2.51-0.23,3.75-0.47c0.9,0.13,0.9-0.41,0.82-0.98c-0.29-2.19-0.6-4.38-0.91-6.57
			c-0.24-1.17-0.47-2.35-0.71-3.52c-0.21-1.32-0.41-2.64-0.62-3.97c0.64-0.98-0.11-1.87-0.26-2.78c-0.14-0.9-0.31-1.48,1.05-1.66
			c1.73-0.22,3.47-0.31,5.21-0.42c2.72-0.18,5.42,0.02,8.13,0.17c0.72,0.04,1.28,0.23,1.28,1.27c0,0.64-0.73,1.53,0.26,2.1
			c-0.01,0.17-0.01,0.35-0.02,0.52c-0.12,0.04-0.23,0.09-0.35,0.13c0.11,0.05,0.23,0.1,0.34,0.15c0,0,0.1-0.02,0.1-0.02
			c-0.03,0.86-0.07,1.72-0.1,2.59c-0.39,1.7-0.28,3.42-0.32,5.14c-0.34,1.42-0.18,2.86-0.15,4.3c-0.01,0.66-0.02,1.32-0.04,1.98
			c-0.03,0.71,0.4,1.14,1.08,1.16c1.49,0.04,3,0.28,4.47-0.16c0.82-0.03,1.63-0.06,2.45-0.08c1.85-0.15,3.72-0.07,5.54-0.44
			c0.82-0.03,1.65-0.06,2.47-0.09c1.62-0.04,3.24-0.24,4.87,0c1.41,0.58,2.83,1.16,4.24,1.74c0.11,0.05,0.23,0.1,0.34,0.16
			c1.32,0.66,2.63,1.32,3.95,1.98c1.43,0.91,3.02,1.61,4.27,2.76c1.03,0.95,0.95,1.69-0.24,2.45c-1.21,0.78-2.6,0.94-3.99,1.14
			c-1.43,0.09-2.85,0.18-4.28,0.27c-1.24-0.01-2.49-0.02-3.73-0.03c-1.61-0.12-3.22-0.33-4.85-0.24c-1.43-0.19-2.87-0.37-4.3-0.56
			c-2.82-0.59-5.68-0.8-8.57-0.77c-1.43,0-2.87,0-4.3,0c-3.45-0.15-6.86,0.16-10.28,0.53c-0.81,0.08-1.64,0.12-2.4,0.44
			c-1.57,0.14-3.01,0.68-4.47,1.18c-2.51,0.71-4.8,1.82-6.81,3.39c-2.71,2.12-3.7,5-2.7,7.59c-0.04,0.6,0.32,1.04,0.66,1.49
			c2.2,2.83,5.53,3.93,8.84,5.07c1.79,0.62,3.59,1.21,5.37,1.86c0.93,0.34,1.19,0.09,0.94-0.77c0.14-1.34,0.14-2.68,0-4.02
			c0-1.33,0-2.66,0-3.98c0.14-1.34,0.14-2.68,0-4.02c0.2-2.36,0.2-2.36,2.26-2.96c0.49-0.04,1.01,0.13,1.46-0.18
			c2.37-0.03,4.74-0.07,7.11-0.1c0.88-0.02,0.79,0.56,0.74,1.08c-0.13,1.34-0.22,2.69-0.12,4.04c0,0.71,0,1.42,0,2.13
			c-0.01,0.27-0.02,0.54-0.03,0.82c-0.11,2.4-0.35,4.79-0.25,7.19c-0.03,1.34-0.05,2.68-0.08,4.02c0,0.76-0.01,1.52-0.01,2.28
			c-0.44,1.72-0.16,3.46-0.2,5.2c-0.04,1.61-0.09,3.21-0.13,4.82c-0.39,2.57-0.13,5.15-0.18,7.72c-0.26,2.46-0.06,4.94-0.11,7.4
			c-0.02,0.96,0.69,0.71,1.16,0.5c1.35-0.62,2.68-1.29,3.83-2.22c0.72-0.4,1.42-0.82,1.98-1.41c0.84-0.53,1.69-1.06,2.28-1.86
			c0.77-0.63,1.67-1.16,1.99-2.15c0.83-1.53,0.32-2.92-0.54-4.26c-0.36-0.71-0.74-1.4-1.44-1.88c-1.1-1.62-2.75-2.66-4.53-3.46
			c-1.41-0.63-2.32-1.34-1.97-2.91c0.35-1.06,0.16-2.15,0.22-3.23c0.09-0.95,0.24-1.9,0.25-2.86c0.01-0.97,0.38-1.35,1.41-1.07
			c1.4,0.61,2.84,1.12,4.33,1.51c1.28,0.65,2.6,1.2,3.97,1.63c0.11,0.25,0.36,0.24,0.59,0.27c1.27,0.76,2.53,1.52,3.8,2.28
			l0.09-0.02c0.1,0.31,0.4,0.4,0.66,0.53c0.38,0.48,0.81,0.91,1.35,1.24c0.79,0.97,1.58,1.93,2.38,2.9
			c0.16,0.28,0.32,0.56,0.48,0.84c0.53,1.55,0.62,3.18,0.94,4.76c-0.07,1.16-0.14,2.32-0.21,3.48c-0.32,1.21-0.64,2.43-0.97,3.64
			c-0.28,0.25-0.44,0.55-0.49,0.91c-0.9,1.23-1.8,2.46-2.7,3.69c-0.54,0.34-1,0.76-1.36,1.27c-1.07,0.82-2.14,1.64-3.21,2.46
			c-0.36,0.25-0.72,0.49-1.08,0.74c-2.81,1.51-5.59,3.08-8.59,4.26c-1.45,0.64-2.9,1.29-4.35,1.93c-0.81,0.29-1.62,0.6-2.33,1.09
			c-0.65,0.26-1.31,0.52-1.96,0.78c-1.4,0.63-2.8,1.27-4.19,1.9c-0.68,0.33-1.36,0.66-2.05,0.99c-0.8,0.3-1.61,0.56-2.24,1.14
			c-2.33,1.03-4.34,2.45-6.02,4.29c-0.09,0.11-0.17,0.21-0.26,0.32c-0.05,0.08-0.09,0.16-0.14,0.23c-0.36,0.06-0.44,0.28-0.38,0.58
			l0.02,0.02C81.29,328.43,78.34,327.11,75.32,325.98z"/>
		<path class="st4" d="M75.32,325.98c3.02,1.13,5.97,2.45,9.27,2.76c0.06,0.07,0.12,0.15,0.17,0.22c-1.42,2.81-0.73,6.12,1.87,8.19
			c2.55,2.03,5.51,3.49,8.44,5.07c0-4.02,0-7.92,0-11.81c0.03-1.09,0.09-2.19,0.1-3.28c0.01-0.53-0.06-1.05,0.48-1.41
			c1.51-0.44,2.93-1.09,4.33-1.78c0.48-0.06,0.85-0.47,1.38-0.39c-0.58,0.62-0.98,0.84-2.49,1.37c-3.2,1.12-3.37,1.41-3.23,4.6
			c0.03,0.74,0.28,1.01,1.08,1c2.02-0.02,4.05-0.04,6.06-0.3l0.08,0.03c-0.13,5.21-0.26,10.42-0.4,15.63
			c-0.24,8.97-0.59,17.94-0.58,26.91c0,1.5,0,1.5,1.61,1.12c2.34-0.55,4.55-1.43,6.75-2.32c0,0.96-0.06,1.93,0.04,2.89
			c0.09,0.82-0.25,1.76,0.55,2.45c-0.2,0.11-0.4,0.22-0.6,0.33c-4.34,1.37-8.81,2.36-13.16,3.75c-5.88,1.87-5.71,6.65-2.81,9.97
			c0.74,0.85,1.72,1.51,2.81,2.44c0-1.24,0-2.37,0-3.5c0-0.89-0.01-1.79,0.04-2.68c0.07-1.26,1.83-2.35,3.09-1.91
			c0.85,0.29,0.8,1.08,0.83,1.69c0.08,1.95,0.09,3.91,0.05,5.87c-0.09,4.38-0.21,8.77-0.36,13.15c-0.05,1.54-0.31,3.08-0.15,4.63
			c2.58-1.53,2.71-3.97,2.74-6.45c0.02-1.73,0.02-3.47,0.09-5.2c0.05-1.24,0.4-1.43,1.42-0.75c2.58,1.72,4.9,3.64,4.55,7
			c-0.3,2.81-2.08,4.78-4.48,6.3c-0.97,0.62-2.02,1.15-3.05,1.68c-0.63,0.32-1.29,0.66-1.68,1.21c-0.77,1.09-1.45,1.74-2.55,0.26
			c-0.31-0.42-1.08-0.22-1.64-0.16c-2.89,0.32-5.79,0.69-9.08,0.52c1.41-0.7,2.66-0.7,3.81-0.93c2.14-0.42,4.21-1.02,6.24-1.72
			c0.55-0.19,0.97-0.4,0.94-1.09c-0.17-3.44-0.33-6.88-0.41-10.32c-0.02-0.81-0.3-1.29-1.03-1.71c-1.85-1.07-3.64-2.21-5.36-3.47
			c-3.06-2.24-4.2-5.21-4.11-8.7c0.12-4.96,2.56-8.5,7.52-10.36c1.55-0.58,1.81-1.55,1.83-2.9c0.07-7.45-0.39-14.88-0.65-22.32
			c-0.03-0.78-0.52-0.92-1.07-1.18c-3.67-1.76-7.5-3.24-10.96-5.37c-4.87-2.99-8.43-6.85-9.25-12.44
			C74.05,330.32,74.16,328.07,75.32,325.98z"/>
		<path class="st4" d="M105.34,229.61c-0.99-0.57-0.26-1.46-0.26-2.1c0-1.03-0.57-1.23-1.28-1.27c-2.7-0.14-5.41-0.34-8.13-0.17
			c-1.74,0.11-3.47,0.2-5.21,0.42c-1.36,0.17-1.19,0.76-1.05,1.66c0.14,0.92,0.9,1.8,0.26,2.78c-0.11-0.27-0.22-0.53-0.33-0.8
			c-0.21-1.1-0.41-2.2-0.62-3.29c-1.29-5.42-2.59-10.84-3.93-16.44c2.43,0.75,4.53,1.73,6.67,2.61c2.68,1.1,5.32,2.33,8.17,3.01
			c0.46,0.11,4.64,1.28,5.3,3.01c0.55,1.44,0.8,2.91,0.73,4.44c-0.04,0.97,0.03,1.95,0.04,2.93
			C105.59,227.48,105.47,228.55,105.34,229.61z"/>
		<path class="st4" d="M110.8,376.93c-0.8-0.69-0.47-1.62-0.55-2.45c-0.1-0.95-0.03-1.92-0.04-2.89c0.01-0.08,0.03-0.16,0.06-0.24
			c1.5-0.76,2.27-2.03,2.75-3.49c0.5-1.8,0.37-3.57-0.29-5.31c-0.42-1.58-1.23-2.96-2.47-4.11l-0.01-0.09c0,0,0-0.09,0-0.09
			c0.03-0.05,0.05-0.11,0.08-0.16c-0.07,0-0.14,0-0.21,0l0.01-0.08c0,0,0,0.08,0,0.08c0.03-0.98,0.07-1.95,0.08-2.93
			c0.01-0.49,0.08-0.82,0.74-0.91c1.59-0.22,3.16-0.53,4.73-0.8c0.07,0.01,0.14,0.01,0.22,0.02c0.47,0.48,0.94,0.96,1.41,1.44
			c1.11,1.16,1.85,2.55,2.65,3.89c0.86,2.62,1.19,5.3,1.1,8.03c-0.01,0.23-0.02,0.47-0.03,0.7c-0.47,1.45-0.77,2.96-1.76,4.23
			C117.15,374.5,114.05,375.81,110.8,376.93z"/>
		<path class="st4" d="M115.7,353.46c-1.58,0.27-3.15,0.58-4.73,0.8c-0.66,0.09-0.73,0.42-0.74,0.91c-0.01,0.98-0.05,1.95-0.08,2.93
			c-1.62-1.29-3.24-2.58-5.08-3.59c-0.45-0.25-0.48-0.61-0.48-1.02c0.02-1.82-0.05-3.63,0.19-5.44c0.13-0.94,0.54-1.14,1.4-0.71
			C109.61,349.03,112.89,350.92,115.7,353.46z"/>
		<path class="st4" d="M98.59,439.26c-0.39-6.74-0.47-13.49,0.34-20.42c0.95,0.54,0.91,1.12,0.93,1.68
			c0.11,3.49-0.22,6.98-0.34,10.47c-0.07,2.02-0.29,4.04-0.44,6.06C99.02,437.8,99.09,438.56,98.59,439.26z"/>
		<path class="st4" d="M110.14,358.09c0.07,0,0.14,0,0.21,0c-0.03,0.05-0.05,0.11-0.08,0.16
			C110.17,358.23,110.13,358.18,110.14,358.09z"/>
		<path class="st4" d="M105.33,230.14c0,0.09-0.01,0.19-0.01,0.28c-0.11-0.05-0.23-0.1-0.34-0.15
			C105.09,230.22,105.21,230.18,105.33,230.14z"/>
		<path class="st4" d="M84.94,328.13c-0.13,0.19-0.25,0.38-0.38,0.58C84.5,328.41,84.58,328.2,84.94,328.13z"/>
		<path class="st4" d="M85.33,327.58c-0.09,0.11-0.17,0.21-0.26,0.32C85.16,327.79,85.25,327.69,85.33,327.58z"/>
		<path class="st4" d="M102.84,324.38c-0.03,1.95-0.05,3.9-0.08,5.85c-2.01,0.26-4.03,0.28-6.06,0.3c-0.8,0.01-1.05-0.26-1.08-1
			c-0.14-3.18,0.04-3.47,3.23-4.6c1.52-0.53,1.92-0.75,2.49-1.37C102.75,322.41,102.72,323.52,102.84,324.38z"/>
	</g>
</g>
<g id="Capa_4" class="st0">
	<text transform="matrix(1.1 0 0 1.25 244.5694 289.2119)" class="st1"><tspan x="0" y="0" class="st5 st6 st7">SEX</tspan><tspan x="176.9" y="0" class="st8 st6 st7">SALUD</tspan></text>
	<rect x="243.05" y="300.64" class="st9" width="545.96" height="12.42"/>
	<text transform="matrix(1.2 0 0 1.75 243.5508 399.0059)" class="st10 st11 st12">Medical Center</text>
</g>
<g id="Capa_5">
	<g>
		<path class="st5" d="M307.59,277.55c-5.39,10.92-18.55,13.31-28.42,13.31c-2.24,0-7.11,0-12.89-1.2
			c-2.63-0.45-12.37-2.24-16.97-11.66c-2.76-5.68-2.76-12.11-2.76-18.69v-4.04h25.39v7.03c0,4.79,1.58,8.52,6.58,8.52
			c1.18,0,2.37-0.3,3.42-1.05c1.97-1.35,2.63-3.29,2.63-7.78c0-5.38-1.58-6.88-7.76-11.96l-16.32-13.31
			c-11.32-9.27-12.11-16-12.11-25.12c0-7.48,0.92-11.51,2.24-14.65c5.13-12.56,18.16-15.1,28.82-15.1c2.63,0,15-0.15,23.29,7.92
			c0.92,0.9,3.42,3.59,4.87,7.33c1.58,4.04,1.97,7.92,1.97,14.8v5.08h-24.34v-7.03c0-2.09,0-2.24-0.39-3.44
			c-0.79-2.99-3.03-4.34-5.66-4.34c-5.26,0-5.79,4.93-5.79,6.88c0,1.65,0.26,2.69,1.05,4.04c1.18,2.24,4.47,4.34,8.82,8.07
			l12.76,10.92c2.24,1.94,4.47,4.04,6.58,6.13c4.21,4.49,8.03,9.72,8.03,23.18C310.62,266.78,310.09,272.62,307.59,277.55z"/>
		<path class="st5" d="M317.59,289.21V183.65h50.79v20.48h-24.6v21.38h22.76v20.19h-22.76v23.18h24.6v20.33H317.59z"/>
		<path class="st5" d="M412.72,289.21l-7.89-36.48l-8.29,36.48h-25.92l16.05-55.17l-16.05-50.39h26.45l7.76,36.18l7.89-36.18h25.92
			l-15.39,50.39l15.39,55.17H412.72z"/>
		<path class="st8" d="M502.19,277.55c-5.39,10.92-18.55,13.31-28.42,13.31c-2.24,0-7.11,0-12.89-1.2
			c-2.63-0.45-12.37-2.24-16.97-11.66c-2.76-5.68-2.76-12.11-2.76-18.69v-4.04h25.39v7.03c0,4.79,1.58,8.52,6.58,8.52
			c1.18,0,2.37-0.3,3.42-1.05c1.97-1.35,2.63-3.29,2.63-7.78c0-5.38-1.58-6.88-7.76-11.96l-16.32-13.31
			c-11.32-9.27-12.11-16-12.11-25.12c0-7.48,0.92-11.51,2.24-14.65c5.13-12.56,18.16-15.1,28.82-15.1c2.63,0,15-0.15,23.29,7.92
			c0.92,0.9,3.42,3.59,4.87,7.33c1.58,4.04,1.97,7.92,1.97,14.8v5.08h-24.34v-7.03c0-2.09,0-2.24-0.39-3.44
			c-0.79-2.99-3.03-4.34-5.66-4.34c-5.26,0-5.79,4.93-5.79,6.88c0,1.65,0.26,2.69,1.05,4.04c1.18,2.24,4.47,4.34,8.82,8.07
			l12.76,10.92c2.24,1.94,4.47,4.04,6.58,6.13c4.21,4.49,8.03,9.72,8.03,23.18C505.21,266.78,504.69,272.62,502.19,277.55z"/>
		<path class="st8" d="M555.47,289.21l-2.9-23.77h-15.92l-3.16,23.77h-26.05l21.58-105.56h31.32l21.05,105.56H555.47z
			 M544.68,204.28l-5.66,42.31h11.18L544.68,204.28z"/>
		<path class="st8" d="M586.39,289.21V183.65h25.92v85.53h24.08v20.04H586.39z"/>
		<path class="st8" d="M695.86,285.77c-4.6,2.99-10.92,4.93-22.5,4.93c-10.53,0-25-1.79-30.39-13.61
			c-1.71-3.59-2.37-6.73-2.37-14.65v-78.8h26.05v77.6c0,2.39,0,8.52,6.71,8.52c6.71,0,6.58-5.98,6.58-8.52v-77.6h26.18v77
			C706.12,271.57,705.47,279.49,695.86,285.77z"/>
		<path class="st8" d="M780.46,261.25c-0.66,11.66-3.42,16.9-7.11,20.78c-6.97,7.48-16.32,7.18-25.26,7.18h-33.16V183.65h36.05
			c2.11,0,12.76,0.3,20.39,5.83c8.82,6.43,9.21,16.45,9.21,26.91v36.48C780.59,255.72,780.59,258.56,780.46,261.25z M754.41,213.25
			c0-6.88-1.05-9.27-7.1-9.27h-6.05v65.49h6.05c6.05,0,7.1-2.54,7.1-8.67V213.25z"/>
	</g>
	<rect x="243.05" y="300.64" class="st4" width="545.96" height="12.42"/>
	<g>
		<path class="st13" d="M297.74,399.01l0.32-57.08l-18.67,57.08h-6.07l-18.6-57.08l0.32,57.08h-6.07v-66.5h8.91l18.6,56.33
			l18.6-56.33h8.78v66.5H297.74z"/>
		<path class="st13" d="M317.31,377.06c0.45,4.43,1.03,7.44,3.29,10.55c1.55,2.17,5.04,5.65,10.53,5.65c3.75,0,7.49-1.7,10.08-5.75
			c0.9-1.41,1.29-2.54,1.94-4.24l5.88,2.36c-0.45,1.41-0.97,2.83-1.61,4.14c-2,4.24-5.23,6.69-6.2,7.35
			c-1.74,1.22-5.68,3.3-10.92,3.3c-10.21,0-19.25-8.29-19.31-24.77c0-1.41,0.13-4.8,1.1-8.57c3.16-12.15,11.56-14.5,14.14-15.07
			c0.71-0.19,2.13-0.47,3.94-0.47c2.71,0,10.59,0.56,15.82,10.27c0.97,1.79,3.04,5.75,3.55,11.77c0.13,1.22,0.13,2.35,0.13,3.48
			H317.31z M338.11,361.23c-0.52-0.47-1.68-1.51-3.36-2.26c-0.84-0.38-2.13-0.75-4.2-0.75c-4.78,0-9.17,2.54-11.82,8.67
			c-0.52,1.13-0.65,1.41-1.23,3.49h25.25C341.4,364.91,339.66,362.74,338.11,361.23z"/>
		<path class="st13" d="M388.36,399.01l-0.06-6.03c-0.65,0.85-1.36,1.7-2.07,2.35c-2,1.88-6.07,4.52-12.01,4.52
			c-1.94,0-7.49-0.19-12.21-5.27c-2.07-2.17-6.52-8.29-6.52-18.93c0-3.2,0.45-10.74,5.1-16.77c2.07-2.64,6.72-6.97,13.82-6.97
			c1.68,0,6.59,0.28,11.04,3.77c1.03,0.85,1.36,1.04,2.91,2.73v-25.9h6.14v66.5H388.36z M385.46,364.06
			c-3.88-5.09-9.5-4.99-10.79-4.99c-2.07,0-4.07,0.57-5.94,1.7c-6.33,3.96-6.85,12.25-6.85,15.64c0,2.92,0.39,5.56,1.42,8.01
			c1.42,3.49,4.97,8.1,11.69,8.1c4.13,0,9.24-1.88,11.75-6.97c0.84-1.7,1.94-4.99,1.94-9.98
			C388.68,373.39,388.62,368.21,385.46,364.06z"/>
		<path class="st13" d="M404.57,345.32v-9.04h6.07v9.04H404.57z M404.64,399.01v-45.97h6.14v45.97H404.64z"/>
		<path class="st13" d="M457.08,390.15c-2,3.96-5.3,6.5-6.07,7.06c-2.13,1.41-5.94,3.39-11.63,3.39c-6.14,0-13.05-2.07-17.18-9.23
			c-3.49-6.03-3.62-12.72-3.62-15.64c0-4.8,0.71-8.76,2.65-12.72c0.32-0.57,0.97-1.88,1.94-3.3c2.58-3.58,7.75-8.01,16.41-8.01
			c1.68,0,7.69,0.09,12.53,4.52c0.78,0.66,2.2,1.98,3.68,4.33c1.1,1.79,1.62,3.01,2.45,5.09l-5.88,2.45
			c-0.84-2.07-1.42-3.01-1.94-3.77c-3.75-5.27-9.49-5.56-10.85-5.56c-1.49,0-5.81,0.28-9.56,3.96c-4.46,4.43-4.91,10.83-4.91,13.75
			c0,1.41,0.13,4.9,1.55,8.29c1.61,3.67,5.62,8.67,12.98,8.67c1.16,0,6.78-0.19,10.66-4.8c1.1-1.32,1.62-2.45,2.39-4.14l5.88,2.26
			C458.05,387.89,457.6,389.12,457.08,390.15z"/>
		<path class="st13" d="M498.81,399.48c-5.36,0-5.81-4.43-6.07-7.82c-0.19,0.47-0.71,1.7-1.49,2.73c-2.13,3.01-6.52,6.31-13.56,6.31
			c-1.94,0-3.88-0.38-4.46-0.47c-3.17-0.75-5.81-2.26-8.01-5.84c-1.62-2.73-2.46-5.93-2.46-9.51c0-7.91,3.88-11.3,5.56-12.34
			c3.04-1.98,7.94-2.07,15.37-2.17l8.98-0.09c0-4.05,0.13-8.01-2.78-10.27c-1.36-1.04-3.94-1.88-7.69-1.88
			c-2.97,0-7.23,0.38-9.75,3.3c-0.58,0.66-0.78,1.04-1.42,2.73l-6.2-0.85c0.06-0.38,0.65-2.83,1.42-4.52
			c0.58-1.22,1.74-3.3,4.07-4.71c2.07-1.22,6.01-2.45,11.56-2.45c0.9,0,5.36,0.09,8.98,1.41c0.84,0.28,4.13,1.32,6.01,4.99
			c1.55,3.01,1.55,6.12,1.55,9.61v16.77c0,2.92,0,4.71,0.26,5.93c0.32,1.41,1.1,2.73,3.29,2.73c0.58,0,1.1-0.09,2.26-0.28v6.22
			C502.43,399.19,500.62,399.48,498.81,399.48z M481.18,377.25c-4.78,0-7.62,0.19-9.62,1.6c-0.71,0.47-2.65,2.26-2.65,5.93
			c0,4.52,2.84,9.04,9.11,9.04c1.68,0,3.68-0.47,4.07-0.57c1.29-0.28,6.98-1.7,9.49-8.48c1.16-3.2,1.1-6.22,1.16-7.54H481.18z"/>
		<path class="st13" d="M509.66,399.01v-66.5h6.07v66.5H509.66z"/>
		<path class="st13" d="M596.4,387.99c-7.43,12.72-20.6,12.72-23.25,12.72c-9.04,0-14.34-3.67-17.57-6.69
			c-1.16-1.13-2.07-2.17-3.1-3.49c-0.65-0.94-2.07-3.01-3.36-6.03c-1.62-3.58-3.62-9.33-3.62-19.21c0-3.2,0.13-11.96,4-19.78
			c0.65-1.41,1.49-2.92,3.29-5.28c1.61-1.98,3.49-3.86,5.3-5.18c5.88-4.33,13.18-4.52,14.92-4.52c2.13,0,10.59,0.28,17.18,6.12
			c0.9,0.85,2.78,2.64,4.71,5.56c2.07,3.2,3.17,6.12,3.75,7.63l-6.91,2.17c-0.39-1.04-0.78-1.98-1.23-2.92
			c-1.03-2.07-2.58-4.14-4.07-5.46c-2.13-1.98-6.72-4.8-13.18-4.8c-1.81,0-8.85,0.09-14.14,5.56c-0.52,0.47-1.49,1.6-2.58,3.39
			c-1.74,2.73-4.2,8.01-4.2,17.42c0,2.73,0.19,10.27,3.62,16.77c4.07,7.72,10.79,9.51,12.72,9.98c2.2,0.47,4.52,0.47,5.23,0.47
			c2.07,0,10.92,0.09,16.34-8.57c1.1-1.7,1.74-3.11,2.52-5.09l6.85,2.07C598.15,384.69,597.31,386.38,596.4,387.99z"/>
		<path class="st13" d="M610.74,377.06c0.45,4.43,1.03,7.44,3.29,10.55c1.55,2.17,5.04,5.65,10.53,5.65c3.75,0,7.49-1.7,10.08-5.75
			c0.9-1.41,1.29-2.54,1.94-4.24l5.88,2.36c-0.45,1.41-0.97,2.83-1.62,4.14c-2,4.24-5.23,6.69-6.2,7.35
			c-1.74,1.22-5.68,3.3-10.92,3.3c-10.21,0-19.25-8.29-19.31-24.77c0-1.41,0.13-4.8,1.1-8.57c3.16-12.15,11.56-14.5,14.14-15.07
			c0.71-0.19,2.13-0.47,3.94-0.47c2.71,0,10.59,0.56,15.82,10.27c0.97,1.79,3.04,5.75,3.55,11.77c0.13,1.22,0.13,2.35,0.13,3.48
			H610.74z M631.54,361.23c-0.52-0.47-1.68-1.51-3.36-2.26c-0.84-0.38-2.13-0.75-4.2-0.75c-4.78,0-9.17,2.54-11.82,8.67
			c-0.52,1.13-0.65,1.41-1.23,3.49h25.25C634.83,364.91,633.09,362.74,631.54,361.23z"/>
		<path class="st13" d="M681.85,399.01v-24.3c0-3.96-0.26-5.65-0.84-7.54c-1.16-3.96-4.39-7.82-10.85-7.82
			c-3.1,0-4.84,0.85-6.14,1.51c-0.97,0.57-4.59,2.45-6.07,8.2c-0.71,2.64-0.78,5.27-0.78,8.1v21.85h-6.14v-45.97h6.14v5.56
			c1.1-1.32,2.26-2.92,4.78-4.43c1.87-1.13,4.91-2.45,9.3-2.45c7.82,0,13.56,4.62,15.63,11.49c1.03,3.58,1.03,7.16,1.03,10.93v24.87
			H681.85z"/>
		<path class="st13" d="M704.91,359.16v24.58c0,0.56,0,1.98,0.13,3.58c0.19,2.45,0.97,4.43,4.26,4.43c1.94,0,3.88-0.57,4.46-0.66
			l-0.06,7.91c-2,0.38-4,0.66-6.07,0.66c-2.33,0-5.1-0.38-6.91-2.92c-1.55-2.26-1.81-4.71-1.81-10.46v-27.13h-5.36v-6.12h5.49
			v-15.92h6.07v15.92h8.78v6.12H704.91z"/>
		<path class="st13" d="M723.77,377.06c0.45,4.43,1.03,7.44,3.29,10.55c1.55,2.17,5.04,5.65,10.53,5.65c3.75,0,7.49-1.7,10.08-5.75
			c0.9-1.41,1.29-2.54,1.94-4.24l5.88,2.36c-0.45,1.41-0.97,2.83-1.61,4.14c-2,4.24-5.23,6.69-6.2,7.35
			c-1.74,1.22-5.68,3.3-10.92,3.3c-10.21,0-19.25-8.29-19.31-24.77c0-1.41,0.13-4.8,1.1-8.57c3.16-12.15,11.56-14.5,14.14-15.07
			c0.71-0.19,2.13-0.47,3.94-0.47c2.71,0,10.59,0.56,15.82,10.27c0.97,1.79,3.04,5.75,3.55,11.77c0.13,1.22,0.13,2.35,0.13,3.48
			H723.77z M744.57,361.23c-0.52-0.47-1.68-1.51-3.36-2.26c-0.84-0.38-2.13-0.75-4.2-0.75c-4.78,0-9.17,2.54-11.82,8.67
			c-0.52,1.13-0.65,1.41-1.23,3.49h25.25C747.86,364.91,746.12,362.74,744.57,361.23z"/>
		<path class="st13" d="M781.13,360.2c-1.1,0-8.33-0.28-10.4,8.01c-0.45,1.98-0.52,3.86-0.52,5.93v24.87h-6.14v-45.97h6.07
			l0.06,5.18c0.45-0.66,0.78-1.22,1.74-2.17c1.62-1.6,5.36-4.33,10.4-4.33c1.81,0,2.84,0.47,3.62,0.75v8.76
			C784.81,360.76,783.58,360.2,781.13,360.2z"/>
	</g>
	<g id="XMLID_00000056405679631907706350000014156591910619964298_">
		<g>
			<path class="st14" d="M85.33,414.97c1.92-0.58,5.2-1.62,10.78-3.49c0.41-0.13,0.7-0.52,0.7-0.96v-9.27
				c0-0.37-0.21-0.71-0.54-0.89c-2.02-1.05-9.13-5.06-10.57-9.99c-0.38-1.29-0.38-3.92,0.65-6.7h0.01c1.13-3.07,3.51-6.32,8.03-8.17
				c0.39-0.16,0.65-0.53,0.64-0.95l-0.43-22.5c-0.01-0.41-0.26-0.77-0.64-0.92c-3.35-1.29-19.06-7.77-20.61-15.8
				c0,0-1.36-3.49,0.96-8.56h0.01l0.67,0.17c-1.31,2.97,0.13,7.27,4.36,7.27c2.62,0,4.17-1.65,4.66-3.61l1.03,0.21
				c-0.55,2.35,1.05,5.28,7.58,9.1c0.67,0.39,1.52-0.09,1.53-0.86l0.13-8.45l0.07-4.5c0,0-1.25-1.26,7.72-3.89
				c0.13-0.04,0.26-0.06,0.39-0.04c0.6,0.08,1.96,0.78,1.25,5.56c-0.01,0.04-0.01,0.08-0.01,0.12l-0.05,2.66l-0.29,15.53
				l-0.49,25.81c-0.02,0.64,0.56,1.13,1.19,1.01c1.92-0.37,5.54-1.32,6.74-3.3c1.67-2.73,2.62-5.16-0.45-9.31
				c-2.34-3.16-3.74-4.05-4.77-4.52c-0.32-0.15-0.7-0.08-0.73-0.44c-0.17-1.71-0.34-6.58-0.26-9.23c0.08-2.61,11.33,7.41,11.33,7.41
				s5.93,4.91,5.78,11.72c-0.12,5.21-1.04,6.85-5.08,10.29c-1.31,1.12-5.71,2.79-5.71,2.79s-7.37,1.8-12.46,3.63
				c-2.08,0.74-3.77,1.49-4.44,2.12c-1.26,1.19-0.68,3.13,0.11,4.65c0.44,0.87,1.74,0.67,1.9-0.29l0.11-0.68
				c0-0.02,0-0.04,0.01-0.06c0.74-2.76,1.69-4.49,2.61-4.88c1.14-0.48,2.22,1.1,2.74,5.35c0.31,2.55,0.18,7.74,0.36,19.45
				c0,0,1.06,0.03,0.97-9.77c0-0.48,0.32-0.95,0.8-1c0.63-0.08,1.75,0.32,3.66,2.23c2.62,2.63,3.65,4.48,2.9,7.16
				c-0.33,1.2-1.03,2.57-2.1,4.26c0,0-2.88,5.56-21,5.15h-1.75V414.97z"/>
			<path class="st15" d="M119.54,352.6l-3.62,0.87c0,0-11.25-10.02-11.33-7.41l-1.23-0.02l0.29-15.53c10.81,0,20.21-2.99,27.83-8.17
				l17.39,16.47C134.02,349.37,119.54,352.6,119.54,352.6z"/>
			<path class="st14" d="M106.33,226.62c-0.21,5.51-0.48,13.61-0.58,16.49c-0.02,0.58,0.46,1.05,1.04,1.03l18.55-0.54
				c0.11,0,0.22,0.01,0.32,0.04c1.76,0.54,17.66,5.53,13.55,10.11c-4.25,4.73-23.69,1.44-24.63,1.28c-0.03-0.01-0.05-0.01-0.07-0.01
				c-1.37-0.14-38.34-3.65-35.97,11.19c0,0-0.65,3.9,12.34,7.61c0.64,0.18,1.29-0.29,1.29-0.96l0.1-10.87c0-0.09,0-0.18-0.02-0.26
				c-0.14-0.52-0.5-2.85,3.6-3.36c4.05-0.51,7.3-0.22,8.04-0.14c0.09,0.01,0.18,0.01,0.27-0.01c0.48-0.1,2.31-0.26,1.55,3.26
				c-0.44,2.05-0.62,13.38-0.69,24.04c-0.06,7.6-0.05,14.86-0.05,18.17c0,0.81,0.9,1.28,1.57,0.84l3.46-2.29
				c0.03-0.02,0.05-0.03,0.08-0.05c0.54-0.28,7.19-3.92,3.43-7.02c0,0-4.5-5.19-6.93-6c-0.89-0.29-1.17-1.83-1.17-3.65
				c0-3.13,0.83-7.11,0.83-7.11s-0.12-2.28,10.04,2.69c9.39,4.59,11.38,10.66,11.62,11.54c0.02,0.08,0.03,0.14,0.03,0.22
				c0.05,1.42,0.17,16.71-14.97,21.34c-0.02,0.01-0.04,0.02-0.06,0.02c-0.81,0.33-17.95,7.33-21.78,10.38
				c-1.78,1.42-4.66,3.07-5.74,5.28c-0.15,0.3-0.27,0.61-0.34,0.93l-1.03-0.21c0.72-2.87-0.83-6.39-4.66-6.39
				c-2.21,0-3.67,1.18-4.36,2.73l-0.67-0.17c2.08-4.52,7.09-10.29,18.63-15.96c0.36-0.18,0.58-0.55,0.57-0.95l-0.97-24.59
				c-0.02-0.48-0.37-0.88-0.84-0.95c-3.88-0.66-20.77-3.96-27.59-12.92c-7.73-10.15,2.54-19.61,2.54-19.61s4.88-5.21,22.85-6.5
				c0.61-0.05,1.05-0.61,0.93-1.2l-3.32-16.89c0.25-0.06,0.49-0.1,0.74-0.15c0.44,1.63,1.66,2.99,3.43,3.48
				c2.41,0.67,4.75,0.99,7.16,0.91c0.53,0.19,1.12,0.31,1.79,0.31c3.34,0,4.95-2.7,4.81-5.29h0.01
				C105.48,226.51,105.91,226.56,106.33,226.62z"/>
			<path class="st14" d="M79.35,324.21c3.83,0,5.38,3.52,4.66,6.39c-0.49,1.96-2.04,3.61-4.66,3.61c-4.23,0-5.67-4.3-4.36-7.27
				C75.68,325.39,77.14,324.21,79.35,324.21z"/>
			<path class="st15" d="M60.32,240.97c-10.13,9.5-16.42,22.77-16.42,37.44c0,22.17,11.28,40.76,30.41,48.36
				c-2.32,5.07-0.96,8.56-0.96,8.56c1.55,8.03,17.26,14.51,20.61,15.8c0.38,0.15,0.63,0.51,0.64,0.92l0.43,22.5
				c0.01,0.42-0.25,0.79-0.64,0.95c-4.52,1.85-6.9,5.1-8.03,8.17h-0.01l-0.14-0.06v-30.16c0,0-29.23,0.38-54.68-29.87
				S19.6,254.76,19.6,254.76s5.16-18.83,23.63-34.1L60.32,240.97z"/>
			<path class="st15" d="M94.28,330.6l-0.13,8.45c-0.01,0.77-0.86,1.25-1.53,0.86c-6.53-3.82-8.13-6.75-7.58-9.1
				c0.07-0.32,0.19-0.63,0.34-0.93C88.61,330.48,90.77,330.6,94.28,330.6z"/>
			<path class="st16" d="M219.71,163.34l9.87,58.53l-16.23,15.03l-5.62-44.93l-43.1,40.29c0,0,25.47,26.79,12.39,68.62
				c-5.61,17.94-16.99,30.01-28.15,37.93l-17.39-16.47c13.58-9.22,21.46-25.4,21.46-43.93c0-26.33-20.26-48.11-46.61-51.79
				c0.05-1.45,0.1-2.73,0.14-3.68c0.23-5.42-3-6.34-3-6.34l-18.26-7.07c-0.74-0.29-1.5,0.35-1.35,1.13l3.25,16.54
				c-10.3,2.08-19.53,6.96-26.79,13.77l-17.09-20.31c11.57-9.58,28.35-17.76,52.36-19.05c0,0,15.47-0.76,38.67,7.63
				c0,0,5.84,1.69,12.45,6.66l44.45-39.27l-48.56-5.72l16.12-15.12L219.71,163.34z"/>
			<path class="st15" d="M148.23,383.62v22.21l-38.04,0.35h-0.01c0.75-2.68-0.28-4.53-2.9-7.16c-1.91-1.91-3.03-2.31-3.66-2.23
				c-0.48,0.05-0.8,0.52-0.8,1c0.09,9.8-0.97,9.77-0.97,9.77c-0.18-11.71-0.05-16.9-0.36-19.45c-0.52-4.25-1.6-5.83-2.74-5.35
				l-0.3-0.86c5.09-1.83,12.46-3.63,12.46-3.63l-0.11,5.35H148.23z"/>
			<path class="st15" d="M110.35,360.25c3.07,4.15,2.12,6.58,0.45,9.31c-1.2,1.98-4.82,2.93-6.74,3.3
				c-0.63,0.12-1.21-0.37-1.19-1.01l0.49-25.81l1.23,0.02c-0.08,2.65,0.09,7.52,0.26,9.23c0.03,0.36,0.41,0.29,0.73,0.44
				C106.61,356.2,108.01,357.09,110.35,360.25z"/>
			<path class="st15" d="M110.19,406.18l-0.27,33.78H99.08c2.17-5.06,2.55-20.09,1.48-21.12c-0.78-0.74-1.48-1.11-1.89-1.28
				c-0.18-0.08-0.39,0.04-0.41,0.24c-0.15,1.61-0.73,7.99-1.08,13.64c-0.25,4.02,0.12,6.91,0.44,8.52H85.33v-24.37h1.75
				c18.12,0.41,21-5.15,21-5.15C109.15,408.75,109.85,407.38,110.19,406.18L110.19,406.18z"/>
			<path class="st14" d="M103.47,216.6c0,0,3.23,0.92,3,6.34c-0.04,0.95-0.09,2.23-0.14,3.68c-0.42-0.06-0.85-0.11-1.27-0.16h-0.01
				c-0.1-2.03-1.27-4-3.51-4.55c-0.98-0.4-2.12-0.5-3.32-0.33c1.1-0.15-0.41-0.04-0.53-0.04c-0.41,0-0.82-0.04-1.23-0.08
				c-0.12-0.03-0.87-0.16-0.95-0.18c-0.53-0.11-1.04-0.25-1.56-0.39c-2.52-0.69-5.55,0.86-6.15,3.49c-0.21,0.9-0.18,1.82,0.06,2.67
				c-0.25,0.05-0.49,0.09-0.74,0.15h-0.01l-3.25-16.54c-0.15-0.78,0.61-1.42,1.35-1.13L103.47,216.6z"/>
			<path class="st14" d="M105.05,226.46c0.14,2.59-1.47,5.29-4.81,5.29c-0.67,0-1.26-0.12-1.79-0.31c-2.41,0.08-4.75-0.24-7.16-0.91
				c-1.77-0.49-2.99-1.85-3.43-3.48c-0.24-0.85-0.27-1.77-0.06-2.67c0.6-2.63,3.63-4.18,6.15-3.49c0.52,0.14,1.03,0.28,1.56,0.39
				c0.08,0.02,0.83,0.15,0.95,0.18c0.41,0.04,0.82,0.08,1.23,0.08c0.12,0,1.63-0.11,0.53,0.04c1.2-0.17,2.34-0.07,3.32,0.33
				C103.78,222.46,104.95,224.43,105.05,226.46z"/>
			<path class="st14" d="M100.56,418.84c1.07,1.03,0.69,16.06-1.48,21.12h-1.46c-0.32-1.61-0.69-4.5-0.44-8.52
				c0.35-5.65,0.93-12.03,1.08-13.64c0.02-0.2,0.23-0.32,0.41-0.24C99.08,417.73,99.78,418.1,100.56,418.84z"/>
			<path class="st14" d="M97.62,439.96h1.46c-0.32,0.75-0.69,1.29-1.09,1.52C97.99,441.48,97.81,440.96,97.62,439.96z"/>
			<path class="st15" d="M98.45,381.9l0.3,0.86c-0.92,0.39-1.87,2.12-2.61,4.88c-0.01,0.02-0.01,0.04-0.01,0.06l-0.11,0.68
				c-0.16,0.96-1.46,1.16-1.9,0.29c-0.79-1.52-1.37-3.46-0.11-4.65C94.68,383.39,96.37,382.64,98.45,381.9z"/>
			<path class="st15" d="M96.81,401.25v9.27c0,0.44-0.29,0.83-0.7,0.96c-5.58,1.87-8.86,2.91-10.78,3.49v-8.1H49.01v-23.26h37.2
				l0.14,0.06c-1.03,2.78-1.03,5.41-0.65,6.7c1.44,4.93,8.55,8.94,10.57,9.99C96.6,400.54,96.81,400.88,96.81,401.25z"/>
			<path class="st16" d="M85.33,414.97v0.62h-2.27C83.42,415.51,84.09,415.34,85.33,414.97z"/>
			<path class="st14" d="M82.7,415.59h0.36C82.51,415.71,82.7,415.59,82.7,415.59z"/>
		</g>
		<g>
			<path class="st17" d="M97.62,439.96H85.33v-24.37v-0.62v-8.1H49.01v-23.26h37.2v-30.16c0,0-29.23,0.38-54.68-29.87
				S19.6,254.76,19.6,254.76s5.16-18.83,23.63-34.1c11.57-9.58,28.35-17.76,52.36-19.05c0,0,15.47-0.76,38.67,7.63
				c0,0,5.84,1.69,12.45,6.66l44.45-39.27l-48.56-5.72l16.12-15.12l60.99,7.55l9.87,58.53l-16.23,15.03l-5.62-44.93l-43.1,40.29
				c0,0,25.47,26.79,12.39,68.62c-5.61,17.94-16.99,30.01-28.15,37.93c-14.85,10.56-29.33,13.79-29.33,13.79l-3.62,0.87
				c0,0,5.93,4.91,5.78,11.72c-0.12,5.21-1.04,6.85-5.08,10.29c-1.31,1.12-5.71,2.79-5.71,2.79l-0.11,5.35h37.43v22.21l-38.04,0.35
				l-0.27,33.78H99.08"/>
			<path class="st17" d="M87.12,227.2c0.25-0.06,0.49-0.1,0.74-0.15"/>
			<path class="st17" d="M74.31,326.77c-19.13-7.6-30.41-26.19-30.41-48.36c0-14.67,6.29-27.94,16.42-37.44
				c7.26-6.81,16.49-11.69,26.79-13.77"/>
			<path class="st17" d="M94.28,330.6c-3.51,0-5.67-0.12-8.9-0.72"/>
			<path class="st17" d="M105.06,226.46c0.42,0.05,0.85,0.1,1.27,0.16c26.35,3.68,46.61,25.46,46.61,51.79
				c0,18.53-7.88,34.71-21.46,43.93c-7.62,5.18-17.02,8.17-27.83,8.17"/>
			<polyline class="st17" points="42.9,220.27 43.23,220.66 60.32,240.97 60.33,240.98 			"/>
			<line class="st17" x1="148.87" y1="338.81" x2="131.48" y2="322.34"/>
			<path class="st18" d="M83.06,415.59c0.36-0.08,1.03-0.25,2.27-0.62c1.92-0.58,5.2-1.62,10.78-3.49c0.41-0.13,0.7-0.52,0.7-0.96
				v-9.27c0-0.37-0.21-0.71-0.54-0.89c-2.02-1.05-9.13-5.06-10.57-9.99c-0.38-1.29-0.38-3.92,0.65-6.7h0.01
				c1.13-3.07,3.51-6.32,8.03-8.17c0.39-0.16,0.65-0.53,0.64-0.95l-0.43-22.5c-0.01-0.41-0.26-0.77-0.64-0.92
				c-3.35-1.29-19.06-7.77-20.61-15.8c0,0-1.36-3.49,0.96-8.56h0.01c2.08-4.52,7.09-10.29,18.63-15.96
				c0.36-0.18,0.58-0.55,0.57-0.95l-0.97-24.59c-0.02-0.48-0.37-0.88-0.84-0.95c-3.88-0.66-20.77-3.96-27.59-12.92
				c-7.73-10.15,2.54-19.61,2.54-19.61s4.88-5.21,22.85-6.5c0.61-0.05,1.05-0.61,0.93-1.2l-3.32-16.89h-0.01l-3.25-16.54
				c-0.15-0.78,0.61-1.42,1.35-1.13l18.26,7.07c0,0,3.23,0.92,3,6.34c-0.04,0.95-0.09,2.23-0.14,3.68
				c-0.21,5.51-0.48,13.61-0.58,16.49c-0.02,0.58,0.46,1.05,1.04,1.03l18.55-0.54c0.11,0,0.22,0.01,0.32,0.04
				c1.76,0.54,17.66,5.53,13.55,10.11c-4.25,4.73-23.69,1.44-24.63,1.28c-0.03-0.01-0.05-0.01-0.07-0.01
				c-1.37-0.14-38.34-3.65-35.97,11.19c0,0-0.65,3.9,12.34,7.61c0.64,0.18,1.29-0.29,1.29-0.96l0.1-10.87c0-0.09,0-0.18-0.02-0.26
				c-0.14-0.52-0.5-2.85,3.6-3.36c4.05-0.51,7.3-0.22,8.04-0.14c0.09,0.01,0.18,0.01,0.27-0.01c0.48-0.1,2.31-0.26,1.55,3.26
				c-0.44,2.05-0.62,13.38-0.69,24.04c-0.06,7.6-0.05,14.86-0.05,18.17c0,0.81,0.9,1.28,1.57,0.84l3.46-2.29
				c0.03-0.02,0.05-0.03,0.08-0.05c0.54-0.28,7.19-3.92,3.43-7.02c0,0-4.5-5.19-6.93-6c-0.89-0.29-1.17-1.83-1.17-3.65
				c0-3.13,0.83-7.11,0.83-7.11s-0.12-2.28,10.04,2.69c9.39,4.59,11.38,10.66,11.62,11.54c0.02,0.08,0.03,0.14,0.03,0.22
				c0.05,1.42,0.17,16.71-14.97,21.34c-0.02,0.01-0.04,0.02-0.06,0.02c-0.81,0.33-17.95,7.33-21.78,10.38
				c-1.78,1.42-4.66,3.07-5.74,5.28c-0.15,0.3-0.27,0.61-0.34,0.93c-0.55,2.35,1.05,5.28,7.58,9.1c0.67,0.39,1.52-0.09,1.53-0.86
				l0.13-8.45l0.07-4.5c0,0-1.25-1.26,7.72-3.89c0.13-0.04,0.26-0.06,0.39-0.04c0.6,0.08,1.96,0.78,1.25,5.56
				c-0.01,0.04-0.01,0.08-0.01,0.12l-0.05,2.66l-0.29,15.53l-0.49,25.81c-0.02,0.64,0.56,1.13,1.19,1.01
				c1.92-0.37,5.54-1.32,6.74-3.3c1.67-2.73,2.62-5.16-0.45-9.31c-2.34-3.16-3.74-4.05-4.77-4.52c-0.32-0.15-0.7-0.08-0.73-0.44
				c-0.17-1.71-0.34-6.58-0.26-9.23c0.08-2.61,11.33,7.41,11.33,7.41"/>
			<path class="st18" d="M83.06,415.59H82.7C82.7,415.59,82.51,415.71,83.06,415.59z"/>
			<path class="st18" d="M110.91,378.27c0,0-7.37,1.8-12.46,3.63c-2.08,0.74-3.77,1.49-4.44,2.12c-1.26,1.19-0.68,3.13,0.11,4.65
				c0.44,0.87,1.74,0.67,1.9-0.29l0.11-0.68c0-0.02,0-0.04,0.01-0.06c0.74-2.76,1.69-4.49,2.61-4.88c1.14-0.48,2.22,1.1,2.74,5.35
				c0.31,2.55,0.18,7.74,0.36,19.45c0,0,1.06,0.03,0.97-9.77c0-0.48,0.32-0.95,0.8-1c0.63-0.08,1.75,0.32,3.66,2.23
				c2.62,2.63,3.65,4.48,2.9,7.16c-0.33,1.2-1.03,2.57-2.1,4.26c0,0-2.88,5.56-21,5.15h-1.75h-2.27"/>
			<path class="st19" d="M99.08,439.96c-0.32,0.75-0.69,1.29-1.09,1.52c0,0-0.18-0.52-0.37-1.52c-0.32-1.61-0.69-4.5-0.44-8.52
				c0.35-5.65,0.93-12.03,1.08-13.64c0.02-0.2,0.23-0.32,0.41-0.24c0.41,0.17,1.11,0.54,1.89,1.28
				C101.63,419.87,101.25,434.9,99.08,439.96z"/>
		</g>
	</g>
</g>
</svg>
