<?xml version="1.0" encoding="utf-8"?>
<!-- Generator: Adobe Illustrator 28.0.0, SVG Export Plug-In . SVG Version: 6.00 Build 0)  -->
<svg version="1.0" id="Capa_1" xmlns="http://www.w3.org/2000/svg" xmlns:xlink="http://www.w3.org/1999/xlink" x="0px" y="0px"
	 viewBox="0 0 14.59 11.55" style="enable-background:new 0 0 14.59 11.55;" xml:space="preserve">
<style type="text/css">
	.st0{fill:#3C6BB3;}
	.st1{fill:#E02D6B;}
	.st2{fill:#EAE65F;}
	.st3{fill:none;stroke:#010202;stroke-width:0.15;stroke-miterlimit:10;}
</style>
<g id="XMLID_00000056405679631907706350000014156591910619964298_">
	<g>
		<path class="st0" d="M11.55,0.56l0.37,2.19l-0.61,0.56l-0.21-1.68L9.49,3.14c0,0,0.95,1,0.46,2.57C9.75,6.38,9.32,6.83,8.9,7.13
			L8.25,6.51c0.51-0.35,0.8-0.95,0.8-1.64c0-0.99-0.76-1.8-1.74-1.94c0-0.05,0-0.1,0.01-0.14C7.32,2.59,7.2,2.55,7.2,2.55L6.52,2.29
			C6.49,2.28,6.46,2.3,6.47,2.33l0.12,0.62c-0.39,0.08-0.73,0.26-1,0.52L4.95,2.7c0.43-0.36,1.06-0.66,1.96-0.71
			c0,0,0.58-0.03,1.45,0.29c0,0,0.22,0.06,0.47,0.25l1.66-1.47L8.67,0.84l0.6-0.57L11.55,0.56z"/>
		<path class="st1" d="M8.25,6.51L8.9,7.13c-0.56,0.4-1.1,0.52-1.1,0.52L7.67,7.67c0,0-0.42-0.37-0.42-0.28l-0.05,0l0.01-0.58
			C7.62,6.81,7.97,6.7,8.25,6.51z"/>
		<path class="st1" d="M8.88,8.8v0.83L7.46,9.65c0.03-0.1-0.01-0.17-0.11-0.27C7.28,9.31,7.23,9.29,7.21,9.29
			c-0.02,0-0.03,0.02-0.03,0.04c0,0.37-0.04,0.37-0.04,0.37c-0.01-0.44,0-0.63-0.01-0.73c-0.02-0.16-0.06-0.22-0.1-0.2L7.02,8.74
			C7.21,8.67,7.48,8.6,7.48,8.6l0,0.2H8.88z"/>
		<path class="st2" d="M8.03,3.56C8.1,3.58,8.7,3.77,8.54,3.94C8.38,4.12,7.65,4,7.62,3.99c0,0,0,0,0,0
			C7.57,3.98,6.18,3.85,6.27,4.41c0,0-0.02,0.15,0.46,0.28C6.76,4.7,6.78,4.68,6.78,4.66l0-0.41c0,0,0-0.01,0-0.01
			c0-0.02-0.02-0.11,0.14-0.13c0.15-0.02,0.27-0.01,0.3-0.01c0,0,0.01,0,0.01,0c0.02,0,0.09-0.01,0.06,0.12
			C7.27,4.31,7.27,4.72,7.26,5.11c0,0.29,0,0.58,0,0.7c0,0.03,0.03,0.05,0.06,0.03l0.13-0.09c0,0,0,0,0,0
			c0.02-0.01,0.27-0.15,0.13-0.26c0,0-0.17-0.19-0.26-0.22C7.28,5.26,7.27,5.19,7.28,5.11c0-0.11,0.03-0.24,0.03-0.24
			s0-0.08,0.38,0.1c0.35,0.17,0.43,0.4,0.43,0.43c0,0,0,0.01,0,0.01c0,0.05,0.01,0.63-0.56,0.8c0,0,0,0,0,0
			C7.53,6.22,6.89,6.48,6.74,6.59c-0.07,0.05-0.17,0.11-0.22,0.2C6.52,6.8,6.52,6.81,6.51,6.83L6.48,6.82
			C6.5,6.71,6.44,6.58,6.3,6.58c-0.08,0-0.14,0.04-0.16,0.1L6.11,6.67c0.08-0.17,0.27-0.39,0.7-0.6c0.01-0.01,0.02-0.02,0.02-0.04
			L6.8,5.12c0-0.02-0.01-0.03-0.03-0.04C6.62,5.06,5.99,4.94,5.73,4.6C5.44,4.22,5.83,3.87,5.83,3.87s0.18-0.19,0.86-0.24
			c0.02,0,0.04-0.02,0.03-0.04L6.59,2.95c0.01,0,0.02,0,0.03-0.01C6.64,3,6.68,3.05,6.75,3.07C6.84,3.1,6.93,3.11,7.02,3.11
			c0.02,0.01,0.04,0.01,0.07,0.01c0.12,0,0.19-0.1,0.18-0.2h0c0.02,0,0.03,0,0.05,0.01C7.3,3.13,7.29,3.44,7.29,3.54
			c0,0.02,0.02,0.04,0.04,0.04l0.69-0.02C8.03,3.56,8.03,3.56,8.03,3.56z"/>
		<path class="st2" d="M7.67,7.67c0,0,0.22,0.18,0.22,0.44c0,0.19-0.04,0.26-0.19,0.39C7.65,8.54,7.48,8.6,7.48,8.6
			S7.21,8.67,7.02,8.74C6.94,8.77,6.88,8.79,6.85,8.82c-0.05,0.04-0.03,0.12,0,0.17c0.02,0.03,0.07,0.03,0.07-0.01l0-0.03
			c0,0,0,0,0,0c0.03-0.1,0.06-0.17,0.1-0.18c0.04-0.02,0.08,0.04,0.1,0.2c0.01,0.1,0.01,0.29,0.01,0.73c0,0,0.04,0,0.04-0.37
			c0-0.02,0.01-0.04,0.03-0.04c0.02,0,0.07,0.01,0.14,0.08c0.1,0.1,0.14,0.17,0.11,0.27c-0.01,0.04-0.04,0.1-0.08,0.16
			c0,0-0.06,0.12-0.38,0.17C6.89,9.99,6.76,10,6.59,10H6.53V9.97c0.07-0.02,0.19-0.06,0.4-0.13c0.02,0,0.03-0.02,0.03-0.04V9.46
			c0-0.01-0.01-0.03-0.02-0.03c-0.08-0.04-0.34-0.19-0.4-0.37C6.52,9.01,6.52,8.91,6.56,8.8C6.61,8.69,6.7,8.57,6.86,8.5
			c0.01-0.01,0.02-0.02,0.02-0.04L6.87,7.62c0-0.02-0.01-0.03-0.02-0.03C6.72,7.54,6.13,7.3,6.08,6.99c0,0-0.05-0.13,0.04-0.32
			l0.03,0.01c-0.05,0.11,0,0.27,0.16,0.27c0.1,0,0.16-0.06,0.17-0.14l0.04,0.01C6.49,6.91,6.55,7.02,6.8,7.17
			c0.02,0.01,0.06,0,0.06-0.03l0.01-0.32l0-0.17c0,0-0.05-0.05,0.29-0.15c0,0,0.01,0,0.01,0c0.02,0,0.07,0.03,0.05,0.21c0,0,0,0,0,0
			l0,0.1L7.2,7.4L7.18,8.36c0,0.02,0.02,0.04,0.04,0.04C7.3,8.39,7.43,8.35,7.48,8.28c0.06-0.1,0.1-0.19-0.02-0.35
			C7.37,7.81,7.32,7.78,7.28,7.76c-0.01-0.01-0.03,0-0.03-0.02C7.25,7.68,7.24,7.5,7.25,7.4C7.25,7.3,7.67,7.67,7.67,7.67z"/>
		<path class="st1" d="M7.46,7.93c0.11,0.16,0.08,0.25,0.02,0.35C7.43,8.35,7.3,8.39,7.23,8.4c-0.02,0-0.04-0.01-0.04-0.04L7.2,7.4
			l0.05,0c0,0.1,0,0.28,0.01,0.35c0,0.01,0.02,0.01,0.03,0.02C7.32,7.78,7.37,7.81,7.46,7.93z"/>
		<path class="st1" d="M7.46,9.65l-0.01,1.26H7.04c0.08-0.19,0.1-0.75,0.06-0.79c-0.03-0.03-0.06-0.04-0.07-0.05c0,0-0.01,0-0.01,0
			L7,9.98c0.32-0.05,0.38-0.17,0.38-0.17C7.42,9.74,7.44,9.69,7.46,9.65z"/>
		<path class="st2" d="M7.2,2.55c0,0,0.12,0.03,0.11,0.24c0,0.04,0,0.08-0.01,0.14c-0.02,0-0.03,0-0.05-0.01h0
			c0-0.08-0.05-0.15-0.13-0.17C7.1,2.74,7.05,2.73,7.01,2.74c0.04-0.01-0.02,0-0.02,0c-0.02,0-0.03,0-0.05,0
			c0,0-0.03-0.01-0.04-0.01c-0.02,0-0.04-0.01-0.06-0.01C6.75,2.69,6.64,2.74,6.62,2.84c-0.01,0.03-0.01,0.07,0,0.1
			c-0.01,0-0.02,0-0.03,0.01L6.47,2.33C6.46,2.3,6.49,2.28,6.52,2.29L7.2,2.55z"/>
		<path class="st2" d="M7.26,2.92c0.01,0.1-0.06,0.2-0.18,0.2c-0.03,0-0.05,0-0.07-0.01c-0.09,0-0.18-0.01-0.27-0.03
			C6.68,3.05,6.64,3,6.62,2.94c-0.01-0.03-0.01-0.07,0-0.1c0.02-0.1,0.14-0.16,0.23-0.13c0.02,0.01,0.04,0.01,0.06,0.01
			c0,0,0.03,0.01,0.04,0.01c0.02,0,0.03,0,0.05,0c0,0,0.06,0,0.02,0c0.04-0.01,0.09,0,0.12,0.01C7.22,2.77,7.26,2.84,7.26,2.92z"/>
		<path class="st2" d="M7.1,10.12c0.04,0.04,0.03,0.6-0.06,0.79H6.99c-0.01-0.06-0.03-0.17-0.02-0.32c0.01-0.21,0.04-0.45,0.04-0.51
			c0,0,0-0.01,0-0.01c0,0,0.01,0,0.01,0C7.04,10.08,7.07,10.09,7.1,10.12z"/>
		<path class="st2" d="M6.99,10.91h0.05C7.03,10.94,7.01,10.96,7,10.97C7,10.97,6.99,10.95,6.99,10.91z"/>
		<path class="st1" d="M7.02,8.74l0.01,0.03c-0.03,0.01-0.07,0.08-0.1,0.18c0,0,0,0,0,0l0,0.03C6.92,9.02,6.87,9.02,6.85,8.99
			c-0.03-0.06-0.05-0.13,0-0.17C6.88,8.79,6.94,8.77,7.02,8.74z"/>
		<path class="st1" d="M7,9.98l0.02,0.1c0,0,0,0,0,0.01c-0.01,0.06-0.03,0.3-0.04,0.51c-0.01,0.15,0,0.26,0.02,0.32H6.53V10h0.07
			C6.76,10,6.89,9.99,7,9.98z"/>
		<path class="st1" d="M6.95,9.46v0.35c0,0.02-0.01,0.03-0.03,0.04C6.72,9.91,6.6,9.95,6.53,9.97v-0.3H5.17V8.8h1.39l0.01,0
			c-0.04,0.1-0.04,0.2-0.02,0.25c0.05,0.18,0.32,0.33,0.4,0.37C6.95,9.44,6.95,9.45,6.95,9.46z"/>
		<path class="st1" d="M6.87,7.62l0.02,0.84c0,0.02-0.01,0.03-0.02,0.04C6.7,8.57,6.61,8.69,6.56,8.8l-0.01,0V7.67
			c0,0-1.09,0.01-2.05-1.12C3.56,5.42,4.07,3.98,4.07,3.98s0.19-0.7,0.88-1.28l0.64,0.76c-0.38,0.36-0.61,0.85-0.61,1.4
			c0,0.83,0.42,1.53,1.14,1.81C6.03,6.86,6.08,6.99,6.08,6.99c0.06,0.3,0.65,0.54,0.77,0.59C6.86,7.59,6.87,7.61,6.87,7.62z"/>
		<path class="st1" d="M6.86,6.82L6.86,7.13c0,0.03-0.03,0.05-0.06,0.03c-0.24-0.14-0.3-0.25-0.28-0.34c0-0.01,0.01-0.02,0.01-0.03
			C6.65,6.81,6.73,6.82,6.86,6.82L6.86,6.82z"/>
		<path class="st0" d="M6.53,9.97V10H6.44C6.45,10,6.48,9.99,6.53,9.97z"/>
		<path class="st2" d="M6.3,6.58c0.14,0,0.2,0.13,0.17,0.24C6.46,6.89,6.4,6.95,6.3,6.95c-0.16,0-0.21-0.16-0.16-0.27
			C6.16,6.62,6.22,6.58,6.3,6.58z"/>
		<path class="st2" d="M6.43,10h0.01C6.42,10,6.43,10,6.43,10z"/>
	</g>
	<g>
		<path class="st3" d="M7.46,9.65l-0.01,1.26H7.04H6.99H6.53V10V9.97v-0.3H5.17V8.8h1.39V7.67c0,0-1.09,0.01-2.05-1.12
			C3.56,5.42,4.07,3.98,4.07,3.98s0.19-0.7,0.88-1.28c0.43-0.36,1.06-0.66,1.96-0.71c0,0,0.58-0.03,1.45,0.29
			c0,0,0.22,0.06,0.47,0.25l1.66-1.47L8.67,0.84l0.6-0.57l2.28,0.28l0.37,2.19l-0.61,0.56l-0.21-1.68L9.49,3.14
			c0,0,0.95,1,0.46,2.57C9.75,6.38,9.32,6.83,8.9,7.13c-0.56,0.4-1.1,0.52-1.1,0.52L7.67,7.67c0,0,0.22,0.18,0.22,0.44
			c0,0.19-0.04,0.26-0.19,0.39C7.65,8.54,7.48,8.6,7.48,8.6l0,0.2h1.4v0.83L7.46,9.65z"/>
		<path class="st3" d="M6.11,6.67C5.4,6.39,4.97,5.69,4.97,4.86c0-0.55,0.24-1.05,0.61-1.4c0.27-0.25,0.62-0.44,1-0.52
			c0.01,0,0.02,0,0.03-0.01"/>
		<path class="st3" d="M6.86,6.82c-0.13,0-0.21,0-0.33-0.03"/>
		<path class="st3" d="M7.26,2.92c0.02,0,0.03,0,0.05,0.01C8.3,3.06,9.06,3.88,9.06,4.86c0,0.69-0.29,1.3-0.8,1.64
			C7.97,6.7,7.62,6.81,7.21,6.81"/>
		<polyline class="st3" points="4.94,2.69 4.95,2.7 5.59,3.46 5.59,3.46 		"/>
		<line class="st3" x1="8.9" y1="7.13" x2="8.25" y2="6.51"/>
		<path class="st3" d="M6.44,10c0.01,0,0.04-0.01,0.09-0.02c0.07-0.02,0.19-0.06,0.4-0.13c0.02,0,0.03-0.02,0.03-0.04V9.46
			c0-0.01-0.01-0.03-0.02-0.03c-0.08-0.04-0.34-0.19-0.4-0.37C6.52,9.01,6.52,8.91,6.56,8.8C6.61,8.69,6.7,8.57,6.86,8.5
			c0.01-0.01,0.02-0.02,0.02-0.04L6.87,7.62c0-0.02-0.01-0.03-0.02-0.03C6.72,7.54,6.13,7.3,6.08,6.99c0,0-0.05-0.13,0.04-0.32
			c0.08-0.17,0.27-0.39,0.7-0.6c0.01-0.01,0.02-0.02,0.02-0.04L6.8,5.12c0-0.02-0.01-0.03-0.03-0.04C6.62,5.06,5.99,4.94,5.73,4.6
			C5.44,4.22,5.83,3.87,5.83,3.87s0.18-0.19,0.86-0.24c0.02,0,0.04-0.02,0.03-0.04L6.59,2.95L6.47,2.33
			C6.46,2.3,6.49,2.28,6.52,2.29L7.2,2.55c0,0,0.12,0.03,0.11,0.24c0,0.04,0,0.08-0.01,0.14C7.3,3.13,7.29,3.44,7.29,3.54
			c0,0.02,0.02,0.04,0.04,0.04l0.69-0.02c0,0,0.01,0,0.01,0C8.1,3.58,8.7,3.77,8.54,3.94C8.38,4.12,7.65,4,7.62,3.99c0,0,0,0,0,0
			C7.57,3.98,6.18,3.85,6.27,4.41c0,0-0.02,0.15,0.46,0.28C6.76,4.7,6.78,4.68,6.78,4.66l0-0.41c0,0,0-0.01,0-0.01
			c0-0.02-0.02-0.11,0.14-0.13c0.15-0.02,0.27-0.01,0.3-0.01c0,0,0.01,0,0.01,0c0.02,0,0.09-0.01,0.06,0.12
			C7.27,4.31,7.27,4.72,7.26,5.11c0,0.29,0,0.58,0,0.7c0,0.03,0.03,0.05,0.06,0.03l0.13-0.09c0,0,0,0,0,0
			c0.02-0.01,0.27-0.15,0.13-0.26c0,0-0.17-0.19-0.26-0.22C7.28,5.26,7.27,5.19,7.28,5.11c0-0.11,0.03-0.24,0.03-0.24
			s0-0.08,0.38,0.1c0.35,0.17,0.43,0.4,0.43,0.43c0,0,0,0.01,0,0.01c0,0.05,0.01,0.63-0.56,0.8c0,0,0,0,0,0
			C7.53,6.22,6.89,6.48,6.74,6.59c-0.07,0.05-0.17,0.11-0.22,0.2C6.52,6.8,6.52,6.81,6.51,6.83C6.49,6.91,6.55,7.02,6.8,7.17
			c0.02,0.01,0.06,0,0.06-0.03l0.01-0.32l0-0.17c0,0-0.05-0.05,0.29-0.15c0,0,0.01,0,0.01,0c0.02,0,0.07,0.03,0.05,0.21c0,0,0,0,0,0
			l0,0.1L7.2,7.4L7.18,8.36c0,0.02,0.02,0.04,0.04,0.04C7.3,8.39,7.43,8.35,7.48,8.28c0.06-0.1,0.1-0.19-0.02-0.35
			C7.37,7.81,7.32,7.78,7.28,7.76c-0.01-0.01-0.03,0-0.03-0.02C7.25,7.68,7.24,7.5,7.25,7.4c0-0.1,0.42,0.28,0.42,0.28"/>
		<path class="st3" d="M6.44,10H6.43C6.43,10,6.42,10,6.44,10z"/>
		<path class="st3" d="M7.48,8.6c0,0-0.28,0.07-0.47,0.14C6.94,8.77,6.88,8.79,6.85,8.82c-0.05,0.04-0.03,0.12,0,0.17
			c0.02,0.03,0.07,0.03,0.07-0.01l0-0.03c0,0,0,0,0,0c0.03-0.1,0.06-0.17,0.1-0.18c0.04-0.02,0.08,0.04,0.1,0.2
			c0.01,0.1,0.01,0.29,0.01,0.73c0,0,0.04,0,0.04-0.37c0-0.02,0.01-0.04,0.03-0.04c0.02,0,0.07,0.01,0.14,0.08
			c0.1,0.1,0.14,0.17,0.11,0.27c-0.01,0.04-0.04,0.1-0.08,0.16c0,0-0.06,0.12-0.38,0.17C6.89,9.99,6.76,10,6.59,10H6.53H6.44"/>
		<path class="st3" d="M7.04,10.91C7.03,10.94,7.01,10.96,7,10.97c0,0-0.01-0.02-0.01-0.06c-0.01-0.06-0.03-0.17-0.02-0.32
			c0.01-0.21,0.04-0.45,0.04-0.51c0,0,0-0.01,0-0.01c0,0,0.01,0,0.01,0c0.02,0.01,0.04,0.02,0.07,0.05
			C7.14,10.16,7.12,10.72,7.04,10.91z"/>
	</g>
</g>
</svg>
