<?xml version="1.0" encoding="utf-8"?>
<!-- Generator: Adobe Illustrator 28.0.0, SVG Export Plug-In . SVG Version: 6.00 Build 0)  -->
<svg version="1.0" id="Capa_1" xmlns="http://www.w3.org/2000/svg" xmlns:xlink="http://www.w3.org/1999/xlink" x="0px" y="0px"
	 viewBox="0 0 57.51 45.53" style="enable-background:new 0 0 57.51 45.53;" xml:space="preserve">
<style type="text/css">
	.st0{fill:#3C6BB3;}
	.st1{fill:#E02D6B;}
	.st2{fill:#EAE65F;}
	.st3{fill:none;stroke:#010202;stroke-width:0.5;stroke-miterlimit:10;}
</style>
<g id="XMLID_00000056405679631907706350000014156591910619964298_">
	<g>
		<path class="st0" d="M43.29,4.16l1.41,8.35l-2.31,2.14l-0.8-6.41l-6.15,5.75c0,0,3.63,3.82,1.77,9.78
			c-0.8,2.56-2.42,4.28-4.01,5.41l-2.48-2.35c1.93-1.32,3.06-3.62,3.06-6.26c0-3.75-2.89-6.86-6.65-7.38
			c0.01-0.21,0.01-0.39,0.02-0.52c0.03-0.77-0.43-0.9-0.43-0.9l-2.6-1.01c-0.11-0.04-0.22,0.05-0.19,0.16l0.46,2.36
			c-1.47,0.3-2.78,0.99-3.82,1.96l-2.44-2.89c1.65-1.37,4.04-2.53,7.47-2.72c0,0,2.2-0.11,5.51,1.09c0,0,0.83,0.24,1.77,0.95
			l6.34-5.6l-6.92-0.82l2.3-2.16L43.29,4.16z"/>
		<path class="st1" d="M30.71,26.83l2.48,2.35c-2.12,1.51-4.18,1.97-4.18,1.97l-0.52,0.12c0,0-1.6-1.43-1.62-1.06l-0.18,0L26.74,28
			C28.28,28,29.62,27.57,30.71,26.83z"/>
		<path class="st1" d="M33.1,35.57v3.17l-5.43,0.05c0.11-0.38-0.04-0.65-0.41-1.02c-0.27-0.27-0.43-0.33-0.52-0.32
			c-0.07,0.01-0.11,0.07-0.11,0.14c0.01,1.4-0.14,1.39-0.14,1.39c-0.03-1.67-0.01-2.41-0.05-2.77c-0.07-0.61-0.23-0.83-0.39-0.76
			L26,35.33c0.73-0.26,1.78-0.52,1.78-0.52l-0.02,0.76H33.1z"/>
		<path class="st2" d="M29.88,15.61c0.25,0.08,2.52,0.79,1.93,1.44c-0.61,0.67-3.38,0.21-3.51,0.18c0,0-0.01,0-0.01,0
			c-0.19-0.02-5.47-0.52-5.13,1.6c0,0-0.09,0.56,1.76,1.09c0.09,0.03,0.18-0.04,0.19-0.14l0.01-1.55c0-0.01,0-0.03,0-0.04
			c-0.02-0.07-0.07-0.41,0.51-0.48c0.58-0.07,1.04-0.03,1.15-0.02c0.01,0,0.03,0,0.04,0c0.07-0.01,0.33-0.04,0.22,0.46
			c-0.06,0.29-0.09,1.85-0.1,3.34c-0.01,1.12-0.01,2.19-0.01,2.68c0,0.12,0.13,0.18,0.22,0.12l0.49-0.33c0,0,0.01,0,0.01-0.01
			c0.08-0.04,1.03-0.56,0.49-1c0,0-0.64-0.74-0.99-0.86c-0.14-0.05-0.18-0.31-0.17-0.61c0.01-0.43,0.12-0.93,0.12-0.93
			s-0.02-0.32,1.43,0.38c1.34,0.65,1.62,1.52,1.66,1.65c0,0.01,0.01,0.02,0.01,0.03c0.01,0.2,0.02,2.38-2.13,3.04c0,0-0.01,0-0.01,0
			c-0.12,0.05-2.56,1.05-3.1,1.48c-0.26,0.2-0.66,0.44-0.82,0.75c-0.02,0.04-0.04,0.09-0.05,0.13l-0.15-0.03
			c0.1-0.41-0.12-0.91-0.66-0.91c-0.32,0-0.52,0.17-0.62,0.39l-0.1-0.02c0.3-0.64,1.01-1.47,2.66-2.28
			c0.05-0.03,0.08-0.08,0.08-0.13l-0.14-3.51c0-0.07-0.05-0.12-0.12-0.14c-0.55-0.09-2.96-0.56-3.93-1.84
			c-1.1-1.45,0.36-2.8,0.36-2.8s0.7-0.74,3.26-0.93c0.09-0.01,0.15-0.09,0.13-0.17l-0.47-2.41c0.04-0.01,0.07-0.01,0.11-0.02
			c0.06,0.23,0.24,0.43,0.49,0.5c0.34,0.1,0.68,0.14,1.02,0.13c0.08,0.03,0.16,0.04,0.26,0.04c0.48,0,0.71-0.38,0.69-0.75h0
			c0.06,0.01,0.12,0.01,0.18,0.02c-0.03,0.79-0.07,1.94-0.08,2.35c0,0.08,0.07,0.15,0.15,0.15l2.65-0.08
			C29.85,15.61,29.86,15.61,29.88,15.61z"/>
		<path class="st2" d="M28.49,31.27c0,0,0.85,0.7,0.82,1.67c-0.02,0.74-0.15,0.98-0.72,1.47c-0.19,0.16-0.81,0.4-0.81,0.4
			s-1.05,0.26-1.78,0.52c-0.3,0.11-0.54,0.21-0.63,0.3c-0.18,0.17-0.1,0.45,0.02,0.66c0.06,0.12,0.25,0.1,0.27-0.04l0.02-0.1
			c0,0,0-0.01,0-0.01c0.1-0.39,0.24-0.64,0.37-0.7c0.16-0.07,0.32,0.16,0.39,0.76c0.04,0.36,0.03,1.1,0.05,2.77
			c0,0,0.15,0,0.14-1.39c0-0.07,0.05-0.14,0.11-0.14c0.09-0.01,0.25,0.05,0.52,0.32c0.38,0.38,0.52,0.64,0.41,1.02
			c-0.05,0.17-0.15,0.37-0.3,0.61c0,0-0.23,0.45-1.45,0.65c-0.4,0.06-0.9,0.1-1.54,0.09h-0.25v-0.09c0.27-0.08,0.74-0.23,1.54-0.5
			c0.06-0.02,0.1-0.07,0.1-0.14v-1.32c0-0.05-0.03-0.1-0.08-0.13c-0.29-0.15-1.3-0.72-1.51-1.42c-0.05-0.18-0.05-0.56,0.09-0.96
			c0.16-0.44,0.5-0.9,1.15-1.16c0.06-0.02,0.09-0.08,0.09-0.14l-0.06-3.21c0-0.06-0.04-0.11-0.09-0.13
			c-0.48-0.18-2.72-1.11-2.94-2.25c0,0-0.2-0.5,0.14-1.22l0.1,0.02c-0.19,0.42,0.02,1.04,0.62,1.04c0.37,0,0.59-0.24,0.66-0.51
			l0.15,0.03c-0.08,0.34,0.15,0.75,1.08,1.3c0.09,0.06,0.22-0.01,0.22-0.12l0.02-1.2l0.01-0.64c0,0-0.18-0.18,1.1-0.55
			c0.02-0.01,0.04-0.01,0.06-0.01c0.09,0.01,0.28,0.11,0.18,0.79c0,0.01,0,0.01,0,0.02L26.74,28l-0.04,2.21l-0.07,3.68
			c0,0.09,0.08,0.16,0.17,0.14c0.27-0.05,0.79-0.19,0.96-0.47c0.24-0.39,0.37-0.74-0.07-1.33c-0.33-0.45-0.53-0.58-0.68-0.64
			c-0.05-0.02-0.1-0.01-0.11-0.06c-0.02-0.24-0.05-0.94-0.04-1.32C26.89,29.84,28.49,31.27,28.49,31.27z"/>
		<path class="st1" d="M27.69,32.24c0.44,0.59,0.3,0.94,0.07,1.33c-0.17,0.28-0.69,0.42-0.96,0.47c-0.09,0.02-0.17-0.05-0.17-0.14
			l0.07-3.68l0.18,0c-0.01,0.38,0.01,1.07,0.04,1.32c0.01,0.05,0.06,0.04,0.11,0.06C27.16,31.66,27.36,31.79,27.69,32.24z"/>
		<path class="st1" d="M27.67,38.79l-0.04,4.82h-1.55c0.31-0.72,0.37-2.86,0.21-3.01c-0.11-0.11-0.21-0.16-0.27-0.18
			c-0.02-0.01-0.03,0-0.04,0.01l-0.07-0.38c1.22-0.2,1.45-0.65,1.45-0.65C27.53,39.16,27.63,38.96,27.67,38.79z"/>
		<path class="st2" d="M26.71,11.76c0,0,0.46,0.13,0.43,0.9c-0.01,0.14-0.01,0.32-0.02,0.52c-0.06-0.01-0.12-0.02-0.18-0.02h0
			c-0.01-0.29-0.18-0.57-0.5-0.65c-0.14-0.06-0.3-0.07-0.47-0.05c0.16-0.02-0.06-0.01-0.08-0.01c-0.06,0-0.12-0.01-0.18-0.01
			c-0.02,0-0.12-0.02-0.14-0.03c-0.08-0.02-0.15-0.04-0.22-0.06c-0.36-0.1-0.79,0.12-0.88,0.5c-0.03,0.13-0.03,0.26,0.01,0.38
			c-0.04,0.01-0.07,0.01-0.11,0.02l-0.46-2.36c-0.02-0.11,0.09-0.2,0.19-0.16L26.71,11.76z"/>
		<path class="st2" d="M26.94,13.16c0.02,0.37-0.21,0.75-0.69,0.75c-0.1,0-0.18-0.02-0.26-0.04c-0.34,0.01-0.68-0.03-1.02-0.13
			c-0.25-0.07-0.43-0.26-0.49-0.5c-0.03-0.12-0.04-0.25-0.01-0.38c0.09-0.38,0.52-0.6,0.88-0.5c0.07,0.02,0.15,0.04,0.22,0.06
			c0.01,0,0.12,0.02,0.14,0.03c0.06,0.01,0.12,0.01,0.18,0.01c0.02,0,0.23-0.02,0.08,0.01c0.17-0.02,0.33-0.01,0.47,0.05
			C26.76,12.59,26.92,12.87,26.94,13.16z"/>
		<path class="st2" d="M26.3,40.6c0.15,0.15,0.1,2.29-0.21,3.01h-0.21c-0.05-0.23-0.1-0.64-0.06-1.21c0.05-0.81,0.13-1.72,0.16-1.94
			c0-0.01,0.01-0.02,0.01-0.03c0.01-0.01,0.03-0.01,0.04-0.01C26.09,40.44,26.19,40.49,26.3,40.6z"/>
		<path class="st2" d="M25.88,43.61h0.21c-0.05,0.11-0.1,0.18-0.16,0.22C25.93,43.82,25.91,43.75,25.88,43.61z"/>
		<path class="st1" d="M26,35.33l0.05,0.12c-0.13,0.06-0.27,0.3-0.37,0.7c0,0,0,0.01,0,0.01l-0.02,0.1
			c-0.02,0.14-0.21,0.17-0.27,0.04c-0.11-0.22-0.19-0.49-0.02-0.66C25.46,35.54,25.7,35.43,26,35.33z"/>
		<path class="st1" d="M25.92,40.04l0.07,0.38c-0.01,0.01-0.01,0.02-0.01,0.03c-0.02,0.23-0.11,1.14-0.16,1.94
			c-0.04,0.57,0.02,0.99,0.06,1.21h-1.75v-3.47h0.25C25.02,40.15,25.52,40.11,25.92,40.04z"/>
		<path class="st1" d="M25.76,38.09v1.32c0,0.06-0.04,0.12-0.1,0.14c-0.79,0.27-1.26,0.41-1.54,0.5v-1.15h-5.18v-3.32h5.3l0.02,0.01
			c-0.15,0.4-0.15,0.77-0.09,0.96c0.21,0.7,1.22,1.27,1.51,1.42C25.73,37.99,25.76,38.03,25.76,38.09z"/>
		<path class="st1" d="M25.45,31.07l0.06,3.21c0,0.06-0.04,0.11-0.09,0.14c-0.64,0.26-0.98,0.73-1.15,1.16l-0.02-0.01v-4.3
			c0,0-4.17,0.05-7.8-4.26c-3.63-4.31-1.7-9.81-1.7-9.81s0.74-2.69,3.37-4.86l2.44,2.89c-1.44,1.35-2.34,3.25-2.34,5.34
			c0,3.16,1.61,5.81,4.34,6.9c-0.33,0.72-0.14,1.22-0.14,1.22c0.22,1.15,2.46,2.07,2.94,2.25C25.41,30.96,25.45,31.01,25.45,31.07z"
			/>
		<path class="st1" d="M25.4,28.01l-0.02,1.2c0,0.11-0.12,0.18-0.22,0.12c-0.93-0.54-1.16-0.96-1.08-1.3
			c0.01-0.05,0.03-0.09,0.05-0.13C24.59,28,24.9,28.01,25.4,28.01L25.4,28.01z"/>
		<path class="st0" d="M24.13,40.04v0.09H23.8C23.85,40.12,23.95,40.1,24.13,40.04z"/>
		<path class="st2" d="M23.28,27.1c0.54,0,0.77,0.5,0.66,0.91c-0.07,0.28-0.29,0.51-0.66,0.51c-0.6,0-0.81-0.61-0.62-1.04
			C22.75,27.27,22.96,27.1,23.28,27.1z"/>
		<path class="st2" d="M23.75,40.13h0.05C23.73,40.15,23.75,40.13,23.75,40.13z"/>
	</g>
	<g>
		<path class="st3" d="M27.67,38.79l-0.04,4.82h-1.55h-0.21h-1.75v-3.47v-0.09v-1.15h-5.18v-3.32h5.3v-4.3c0,0-4.17,0.05-7.8-4.26
			c-3.63-4.31-1.7-9.81-1.7-9.81s0.74-2.69,3.37-4.86c1.65-1.37,4.04-2.53,7.47-2.72c0,0,2.2-0.11,5.51,1.09
			c0,0,0.83,0.24,1.77,0.95l6.34-5.6l-6.92-0.82l2.3-2.16l8.7,1.08l1.41,8.35l-2.31,2.14l-0.8-6.41l-6.15,5.75
			c0,0,3.63,3.82,1.77,9.78c-0.8,2.56-2.42,4.28-4.01,5.41c-2.12,1.51-4.18,1.97-4.18,1.97l-0.52,0.12c0,0,0.85,0.7,0.82,1.67
			c-0.02,0.74-0.15,0.98-0.72,1.47c-0.19,0.16-0.81,0.4-0.81,0.4l-0.02,0.76h5.34v3.17L27.67,38.79z"/>
		<path class="st3" d="M22.56,27.47c-2.73-1.08-4.34-3.73-4.34-6.9c0-2.09,0.9-3.98,2.34-5.34c1.04-0.97,2.35-1.67,3.82-1.96
			c0.04-0.01,0.07-0.01,0.11-0.02"/>
		<path class="st3" d="M25.4,28.01c-0.5,0-0.81-0.02-1.27-0.1"/>
		<path class="st3" d="M26.94,13.16c0.06,0.01,0.12,0.01,0.18,0.02c3.76,0.52,6.65,3.63,6.65,7.38c0,2.64-1.12,4.95-3.06,6.26
			C29.62,27.57,28.28,28,26.74,28"/>
		<polyline class="st3" points="18.08,12.28 18.12,12.34 20.56,15.23 20.56,15.23 		"/>
		<line class="st3" x1="33.19" y1="29.18" x2="30.71" y2="26.83"/>
		<path class="st3" d="M23.8,40.13c0.05-0.01,0.15-0.04,0.33-0.09c0.27-0.08,0.74-0.23,1.54-0.5c0.06-0.02,0.1-0.07,0.1-0.14v-1.32
			c0-0.05-0.03-0.1-0.08-0.13c-0.29-0.15-1.3-0.72-1.51-1.42c-0.05-0.18-0.05-0.56,0.09-0.96c0.16-0.44,0.5-0.9,1.15-1.16
			c0.06-0.02,0.09-0.08,0.09-0.14l-0.06-3.21c0-0.06-0.04-0.11-0.09-0.13c-0.48-0.18-2.72-1.11-2.94-2.25c0,0-0.2-0.5,0.14-1.22
			c0.3-0.64,1.01-1.47,2.66-2.28c0.05-0.03,0.08-0.08,0.08-0.13l-0.14-3.51c0-0.07-0.05-0.12-0.12-0.14
			c-0.55-0.09-2.96-0.56-3.93-1.84c-1.1-1.45,0.36-2.8,0.36-2.8s0.7-0.74,3.26-0.93c0.09-0.01,0.15-0.09,0.13-0.17l-0.47-2.41
			l-0.46-2.36c-0.02-0.11,0.09-0.2,0.19-0.16l2.6,1.01c0,0,0.46,0.13,0.43,0.9c-0.01,0.14-0.01,0.32-0.02,0.52
			c-0.03,0.79-0.07,1.94-0.08,2.35c0,0.08,0.07,0.15,0.15,0.15l2.65-0.08c0.02,0,0.03,0,0.05,0.01c0.25,0.08,2.52,0.79,1.93,1.44
			c-0.61,0.67-3.38,0.21-3.51,0.18c0,0-0.01,0-0.01,0c-0.19-0.02-5.47-0.52-5.13,1.6c0,0-0.09,0.56,1.76,1.09
			c0.09,0.03,0.18-0.04,0.19-0.14l0.01-1.55c0-0.01,0-0.03,0-0.04c-0.02-0.07-0.07-0.41,0.51-0.48c0.58-0.07,1.04-0.03,1.15-0.02
			c0.01,0,0.03,0,0.04,0c0.07-0.01,0.33-0.04,0.22,0.46c-0.06,0.29-0.09,1.85-0.1,3.34c-0.01,1.12-0.01,2.19-0.01,2.68
			c0,0.12,0.13,0.18,0.22,0.12l0.49-0.33c0,0,0.01,0,0.01-0.01c0.08-0.04,1.03-0.56,0.49-1c0,0-0.64-0.74-0.99-0.86
			c-0.14-0.05-0.18-0.31-0.17-0.61c0.01-0.43,0.12-0.93,0.12-0.93s-0.02-0.32,1.43,0.38c1.34,0.65,1.62,1.52,1.66,1.65
			c0,0.01,0.01,0.02,0.01,0.03c0.01,0.2,0.02,2.38-2.13,3.04c0,0-0.01,0-0.01,0c-0.12,0.05-2.56,1.05-3.1,1.48
			c-0.26,0.2-0.66,0.44-0.82,0.75c-0.02,0.04-0.04,0.09-0.05,0.13c-0.08,0.34,0.15,0.75,1.08,1.3c0.09,0.06,0.22-0.01,0.22-0.12
			l0.02-1.2l0.01-0.64c0,0-0.18-0.18,1.1-0.55c0.02-0.01,0.04-0.01,0.06-0.01c0.09,0.01,0.28,0.11,0.18,0.79c0,0.01,0,0.01,0,0.02
			L26.74,28l-0.04,2.21l-0.07,3.68c0,0.09,0.08,0.16,0.17,0.14c0.27-0.05,0.79-0.19,0.96-0.47c0.24-0.39,0.37-0.74-0.07-1.33
			c-0.33-0.45-0.53-0.58-0.68-0.64c-0.05-0.02-0.1-0.01-0.11-0.06c-0.02-0.24-0.05-0.94-0.04-1.32c0.01-0.37,1.62,1.06,1.62,1.06"/>
		<path class="st3" d="M23.8,40.13h-0.05C23.75,40.13,23.73,40.15,23.8,40.13z"/>
		<path class="st3" d="M27.78,34.81c0,0-1.05,0.26-1.78,0.52c-0.3,0.11-0.54,0.21-0.63,0.3c-0.18,0.17-0.1,0.45,0.02,0.66
			c0.06,0.12,0.25,0.1,0.27-0.04l0.02-0.1c0,0,0-0.01,0-0.01c0.1-0.39,0.24-0.64,0.37-0.7c0.16-0.07,0.32,0.16,0.39,0.76
			c0.04,0.36,0.03,1.1,0.05,2.77c0,0,0.15,0,0.14-1.39c0-0.07,0.05-0.14,0.11-0.14c0.09-0.01,0.25,0.05,0.52,0.32
			c0.38,0.38,0.52,0.64,0.41,1.02c-0.05,0.17-0.15,0.37-0.3,0.61c0,0-0.23,0.45-1.45,0.65c-0.4,0.06-0.9,0.1-1.54,0.09h-0.25H23.8"
			/>
		<path class="st3" d="M26.09,43.61c-0.05,0.11-0.1,0.18-0.16,0.22c0,0-0.03-0.07-0.05-0.22c-0.05-0.23-0.1-0.64-0.06-1.21
			c0.05-0.81,0.13-1.72,0.16-1.94c0-0.01,0.01-0.02,0.01-0.03c0.01-0.01,0.03-0.01,0.04-0.01c0.06,0.02,0.16,0.08,0.27,0.18
			C26.45,40.74,26.4,42.89,26.09,43.61z"/>
	</g>
</g>
</svg>
